<?xml version="1.0" encoding="UTF-8" standalone="no"?>
<svg
   xmlns:dc="http://purl.org/dc/elements/1.1/"
   xmlns:cc="http://creativecommons.org/ns#"
   xmlns:rdf="http://www.w3.org/1999/02/22-rdf-syntax-ns#"
   xmlns:svg="http://www.w3.org/2000/svg"
   xmlns="http://www.w3.org/2000/svg"
   xmlns:sodipodi="http://sodipodi.sourceforge.net/DTD/sodipodi-0.dtd"
   xmlns:inkscape="http://www.inkscape.org/namespaces/inkscape"
   inkscape:version="1.1-dev (9b51cfe, 2020-02-01)"
   sodipodi:docname="android.svg"
   class=""
   height="512px"
   width="512px"
   xml:space="preserve"
   style="enable-background:new 0 0 27.442 27.442;"
   viewBox="0 0 27.442 27.442"
   y="0px"
   x="0px"
   id="Capa_1"
   version="1.1"><metadata
   id="metadata1188"><rdf:RDF><cc:Work
       rdf:about=""><dc:format>image/svg+xml</dc:format><dc:type
         rdf:resource="http://purl.org/dc/dcmitype/StillImage" /><dc:title></dc:title></cc:Work></rdf:RDF></metadata><defs
   id="defs1186"><linearGradient
     gradientTransform="matrix(1.31117,0,0,1.30239,737.39,159.91)"
     gradientUnits="userSpaceOnUse"
     id="0"
     y2="-0.59899998"
     x2="0"
     y1="45.470001"><stop
       stop-color="#ffc515"
       id="stop2" /><stop
       offset="1"
       stop-color="#ffd55b"
       id="stop4" /></linearGradient></defs><sodipodi:namedview
   inkscape:current-layer="Capa_1"
   inkscape:window-maximized="1"
   inkscape:window-y="30"
   inkscape:window-x="0"
   inkscape:cy="314.78936"
   inkscape:cx="435.48199"
   inkscape:zoom="0.78808594"
   showgrid="false"
   id="namedview1184"
   inkscape:window-height="1015"
   inkscape:window-width="1920"
   inkscape:pageshadow="2"
   inkscape:pageopacity="0"
   guidetolerance="10"
   gridtolerance="10"
   objecttolerance="10"
   borderopacity="1"
   bordercolor="#666666"
   pagecolor="#ffffff" /> <path
   d="m 21.816989,11.915492 c -0.152725,-0.005 -0.293542,0.110677 -0.431352,0.353024 -0.04727,0.08293 -0.440253,0.764391 -0.873618,1.514232 -0.433378,0.749842 -0.831515,1.445131 -0.884754,1.545121 -0.05341,0.1 -0.141185,0.24511 -0.195511,0.322517 l -0.09871,0.140694 -0.324358,-0.131855 c -0.178446,-0.0725 -0.379052,-0.15604 -0.445716,-0.185689 -0.234611,-0.104355 -0.672181,-0.244742 -1.217427,-0.390409 -2.76247,-0.738203 -5.732956,-0.539144 -8.4256125,0.564619 -0.3646266,0.149472 -0.3712562,0.14536 -0.6640257,-0.410788 -0.096497,-0.183295 -0.1959408,-0.342405 -0.2209244,-0.353516 -0.025168,-0.01105 -0.045425,-0.04604 -0.045425,-0.07685 0,-0.03131 -0.063779,-0.158434 -0.141922,-0.282739 C 7.7695514,14.399487 7.6220437,14.14787 7.5198378,13.964513 6.4344166,12.018401 6.2742141,11.81054 5.967007,11.95051 c -0.2888777,0.131609 -0.2645692,0.390469 0.095269,1.01422 0.076977,0.133328 0.1566544,0.255976 0.1772798,0.272672 0.020871,0.01657 0.1098177,0.16666 0.1980893,0.333259 0.088272,0.16666 0.235043,0.430493 0.3260769,0.586288 0.5697138,0.975548 0.7741134,1.32869 0.937999,1.620624 l 0.1844008,0.328528 -0.1273124,0.09564 c -0.069979,0.05279 -0.2580624,0.174395 -0.4179088,0.270769 -0.6177107,0.372484 -1.2687289,0.841471 -1.6915179,1.218492 -0.2885707,0.257326 -0.8788178,0.852655 -1.0530344,1.062156 -0.1166314,0.140265 -0.2539496,0.299497 -0.305206,0.353823 -0.05095,0.05463 -0.173167,0.207849 -0.2708919,0.341178 -0.2157067,0.294218 -0.231053,0.314475 -0.4226968,0.554122 -0.083791,0.104845 -0.1524189,0.218653 -0.1524189,0.253151 0,0.03438 -0.035603,0.09871 -0.078327,0.14272 -0.042969,0.0442 -0.1849529,0.271015 -0.3153959,0.504278 -0.7253554,1.297543 -1.1531165,2.527648 -1.4300855,4.112491 -0.1504545,0.860924 -0.1497793,0.873036 0.051563,0.904035 0.091648,0.01412 5.6977337,0.02885 12.4578747,0.03253 l 12.291141,0.0074 -0.04236,-0.437613 c -0.134801,-1.380591 -0.701261,-3.155396 -1.454694,-4.557889 -0.213436,-0.397222 -0.871845,-1.352292 -1.274229,-1.848215 -0.738228,-0.909793 -1.958831,-1.973232 -2.980891,-2.596971 -0.307968,-0.18796 -0.56026,-0.377149 -0.560506,-0.420487 -7.55e-4,-0.125409 0.142168,-0.386725 1.15955,-2.118499 0.161749,-0.275434 0.294095,-0.527603 0.294095,-0.560506 0,-0.03315 0.02701,-0.05954 0.06077,-0.05954 0.03315,0 0.06077,-0.02394 0.06077,-0.05402 0,-0.02947 0.109081,-0.240506 0.242348,-0.468674 0.276355,-0.472971 0.30539,-0.698898 0.107608,-0.837414 -0.07532,-0.05279 -0.14714,-0.0806 -0.216566,-0.08318 z M 8.1662951,20.28015 c 0.068383,-3.62e-4 0.139528,0.0037 0.2132513,0.01351 0.4079645,0.05095 0.7692395,0.369292 0.8700889,0.766526 0.1441319,0.567995 -0.2157682,1.24841 -0.7129188,1.347842 -0.798735,0.159723 -1.3373451,-0.218285 -1.3853542,-0.972344 -0.045425,-0.71004 0.3541298,-1.151852 1.0149266,-1.155284 z m 11.5479279,0.01719 c 0.306925,-7.61e-4 0.416804,0.02885 0.628772,0.16887 0.282187,0.18661 0.493228,0.577939 0.490896,0.910658 -0.0025,0.291087 -0.201711,0.670772 -0.453881,0.863115 -0.307231,0.234368 -0.86422,0.2739 -1.182618,0.08404 -0.5753,-0.34308 -0.730505,-1.085777 -0.335284,-1.603958 0.254686,-0.333873 0.431475,-0.421592 0.852084,-0.422758 z"
   style="fill:#00ff6e;fill-opacity:1;stroke-width:0.0605929"
   id="path1940-5-2"
   inkscape:connector-curvature="0" /></svg>
