<?xml version="1.0"?>
<svg xmlns="http://www.w3.org/2000/svg" xmlns:xlink="http://www.w3.org/1999/xlink" version="1.1" id="Capa_1" x="0px" y="0px" width="512px" height="512px" viewBox="0 0 438.533 438.533" style="enable-background:new 0 0 438.533 438.533;" xml:space="preserve"><g><g>
	<g>
		<path d="M409.133,109.203c-19.608-33.592-46.205-60.189-79.798-79.796C295.736,9.801,259.058,0,219.273,0    c-39.781,0-76.47,9.801-110.063,29.407c-33.595,19.604-60.192,46.201-79.8,79.796C9.801,142.8,0,179.489,0,219.267    c0,39.78,9.804,76.463,29.407,110.062c19.607,33.592,46.204,60.189,79.799,79.798c33.597,19.605,70.283,29.407,110.063,29.407    s76.47-9.802,110.065-29.407c33.593-19.602,60.189-46.206,79.795-79.798c19.603-33.596,29.403-70.284,29.403-110.062    C438.533,179.485,428.732,142.795,409.133,109.203z M387.434,290.213c-9.709,22.556-22.696,41.97-38.969,58.245    c-16.271,16.269-35.689,29.26-58.245,38.965c-22.555,9.712-46.202,14.564-70.946,14.564c-24.744,0-48.391-4.853-70.948-14.564    c-22.554-9.705-41.971-22.696-58.245-38.965c-16.269-16.275-29.259-35.687-38.97-58.245    c-9.707-22.552-14.562-46.206-14.562-70.946c0-24.744,4.854-48.391,14.562-70.948c9.707-22.554,22.697-41.968,38.97-58.245    c16.274-16.269,35.691-29.26,58.245-38.97c22.554-9.704,46.205-14.558,70.948-14.558c24.74,0,48.395,4.851,70.946,14.558    c22.556,9.707,41.97,22.698,58.245,38.97c16.272,16.274,29.26,35.688,38.969,58.245c9.709,22.554,14.564,46.201,14.564,70.948    C402.002,244.011,397.143,267.664,387.434,290.213z" data-original="#000000" class="active-path" data-old_color="#000000" fill="#FFFFFF"/>
		<path d="M219.27,73.085c-40.349,0-74.803,14.279-103.353,42.829c-28.549,28.549-42.825,63-42.825,103.353    c0,40.355,14.275,74.803,42.825,103.354c28.549,28.547,63.003,42.824,103.353,42.824s74.81-14.273,103.351-42.824    c28.551-28.552,42.825-63.002,42.825-103.354s-14.271-74.804-42.825-103.353C294.08,87.361,259.619,73.085,219.27,73.085z     M296.784,296.783c-21.409,21.409-47.247,32.114-77.514,32.114s-56.104-10.705-77.515-32.114    c-21.414-21.416-32.121-47.253-32.121-77.517c0-30.268,10.707-56.103,32.121-77.516c21.416-21.411,47.251-32.12,77.515-32.12    c30.267,0,56.105,10.709,77.514,32.12c21.412,21.413,32.12,47.248,32.12,77.516C328.904,249.53,318.196,275.367,296.784,296.783z" data-original="#000000" class="active-path" data-old_color="#000000" fill="#FFFFFF"/>
		<path d="M219.27,146.178c-20.177,0-37.401,7.139-51.678,21.411c-14.272,14.277-21.411,31.501-21.411,51.678    c0,20.175,7.135,37.402,21.411,51.673c14.277,14.277,31.504,21.416,51.678,21.416c20.179,0,37.406-7.139,51.676-21.416    c14.274-14.271,21.413-31.498,21.413-51.673c0-20.177-7.139-37.401-21.413-51.678C256.676,153.316,239.449,146.178,219.27,146.178    z" data-original="#000000" class="active-path" data-old_color="#000000" fill="#FFFFFF"/>
	</g>
</g></g> </svg>
