<?xml version="1.0" encoding="UTF-8" standalone="no"?>
<svg
   xmlns:dc="http://purl.org/dc/elements/1.1/"
   xmlns:cc="http://creativecommons.org/ns#"
   xmlns:rdf="http://www.w3.org/1999/02/22-rdf-syntax-ns#"
   xmlns:svg="http://www.w3.org/2000/svg"
   xmlns="http://www.w3.org/2000/svg"
   xmlns:sodipodi="http://sodipodi.sourceforge.net/DTD/sodipodi-0.dtd"
   xmlns:inkscape="http://www.inkscape.org/namespaces/inkscape"
   version="1.1"
   id="Capa_1"
   x="0px"
   y="0px"
   width="512px"
   height="512px"
   viewBox="0 0 438.533 438.533"
   style="enable-background:new 0 0 438.533 438.533;"
   xml:space="preserve"
   sodipodi:docname="chevron-sign-right.svg"
   inkscape:version="0.92.4 (5da689c313, 2019-01-14)"><metadata
   id="metadata13"><rdf:RDF><cc:Work
       rdf:about=""><dc:format>image/svg+xml</dc:format><dc:type
         rdf:resource="http://purl.org/dc/dcmitype/StillImage" /></cc:Work></rdf:RDF></metadata><defs
   id="defs11" /><sodipodi:namedview
   pagecolor="#ffffff"
   bordercolor="#666666"
   borderopacity="1"
   objecttolerance="10"
   gridtolerance="10"
   guidetolerance="10"
   inkscape:pageopacity="0"
   inkscape:pageshadow="2"
   inkscape:window-width="715"
   inkscape:window-height="480"
   id="namedview9"
   showgrid="false"
   inkscape:zoom="0.4609375"
   inkscape:cx="256"
   inkscape:cy="256"
   inkscape:window-x="141"
   inkscape:window-y="54"
   inkscape:window-maximized="0"
   inkscape:current-layer="Capa_1" /><g
   id="g6"
   transform="rotate(-90,219.266,219.267)"><g
     id="g4">
	<path
   d="M 409.133,109.203 C 389.525,75.611 362.928,49.014 329.335,29.407 295.736,9.801 259.058,0 219.273,0 179.492,0 142.803,9.801 109.21,29.407 75.615,49.011 49.018,75.608 29.41,109.203 9.801,142.8 0,179.489 0,219.267 c 0,39.78 9.804,76.463 29.407,110.062 19.607,33.592 46.204,60.189 79.799,79.798 33.597,19.605 70.283,29.407 110.063,29.407 39.78,0 76.47,-9.802 110.065,-29.407 33.593,-19.602 60.189,-46.206 79.795,-79.798 19.603,-33.596 29.403,-70.284 29.403,-110.062 0.001,-39.782 -9.8,-76.472 -29.399,-110.064 z m -120.487,197.71 c 3.621,3.614 5.435,7.901 5.435,12.847 0,4.948 -1.813,9.236 -5.435,12.847 l -29.126,29.13 c -3.61,3.617 -7.891,5.428 -12.84,5.421 -4.951,0 -9.232,-1.811 -12.854,-5.421 L 104.21,232.111 c -3.617,-3.62 -5.424,-7.898 -5.424,-12.848 0,-4.949 1.807,-9.233 5.424,-12.847 L 233.826,76.795 c 3.621,-3.615 7.902,-5.424 12.854,-5.424 4.949,0 9.229,1.809 12.84,5.424 l 29.126,29.13 c 3.621,3.615 5.435,7.898 5.435,12.847 0,4.946 -1.813,9.233 -5.435,12.845 L 201,219.267 Z"
   data-original="#000000"
   class="active-path"
   data-old_color="#000000"
   id="path2"
   inkscape:connector-curvature="0"
   style="fill:#ffffff" />
</g></g> </svg>