<?xml version="1.0" encoding="UTF-8" standalone="no"?>
<svg
   xmlns:dc="http://purl.org/dc/elements/1.1/"
   xmlns:cc="http://creativecommons.org/ns#"
   xmlns:rdf="http://www.w3.org/1999/02/22-rdf-syntax-ns#"
   xmlns:svg="http://www.w3.org/2000/svg"
   xmlns="http://www.w3.org/2000/svg"
   xmlns:sodipodi="http://sodipodi.sourceforge.net/DTD/sodipodi-0.dtd"
   xmlns:inkscape="http://www.inkscape.org/namespaces/inkscape"
   version="1.1"
   id="Capa_1"
   x="0px"
   y="0px"
   width="512px"
   height="512px"
   viewBox="0 0 466.227 466.227"
   style="enable-background:new 0 0 466.227 466.227;"
   xml:space="preserve"
   class=""
   sodipodi:docname="mapper.svg"
   inkscape:version="1.0 (4035a4fb49, 2020-05-01)"><metadata
   id="metadata1093"><rdf:RDF><cc:Work
       rdf:about=""><dc:format>image/svg+xml</dc:format><dc:type
         rdf:resource="http://purl.org/dc/dcmitype/StillImage" /><dc:title /></cc:Work></rdf:RDF></metadata><defs
   id="defs1091" /><sodipodi:namedview
   inkscape:document-rotation="0"
   pagecolor="#ffffff"
   bordercolor="#666666"
   borderopacity="1"
   objecttolerance="10"
   gridtolerance="10"
   guidetolerance="10"
   inkscape:pageopacity="0"
   inkscape:pageshadow="2"
   inkscape:window-width="1920"
   inkscape:window-height="1054"
   id="namedview1089"
   showgrid="false"
   inkscape:zoom="0.66153154"
   inkscape:cx="293.19309"
   inkscape:cy="435.73332"
   inkscape:window-x="0"
   inkscape:window-y="0"
   inkscape:window-maximized="1"
   inkscape:current-layer="Capa_1" /> <path
   transform="scale(0.91059961)"
   d="M 157.63086 37.095703 L 158.71289 38.087891 C 162.78643 41.822518 166.82764 45.147254 167.69531 45.474609 C 170.23319 46.432066 172.89312 45.282561 174.05859 42.724609 C 174.88809 40.904046 174.71229 39.903474 172.76953 37.095703 L 157.63086 37.095703 z M 196.76367 37.095703 L 198.47266 38.691406 C 202.7808 42.713229 208.10469 47.663182 210.30469 49.691406 C 214.90651 53.933951 219.09009 54.385857 219.61523 50.697266 C 219.83783 49.133593 217.71371 46.101021 212.11523 39.990234 L 209.46289 37.095703 L 196.76367 37.095703 z M 235.82812 37.095703 L 245.79102 47.355469 C 261.1152 63.134973 263.76325 65.01995 266.60547 62.177734 C 268.83783 59.94537 267.82499 58.329835 259.05469 50.125 C 254.43643 45.804494 248.59378 40.119906 245.6543 37.095703 L 235.82812 37.095703 z M 273.00391 37.095703 C 277.87978 42.630915 286.67474 52.255555 297.73828 64.128906 C 307.77131 74.896306 310.63776 76.40326 314.23438 72.806641 C 317.90706 69.133951 316.48172 67.159473 297.05469 48.988281 L 284.33984 37.095703 L 273.00391 37.095703 z M 316.20117 37.095703 C 315.05133 38.451528 314.35247 40.569015 314.69922 42.328125 C 314.94126 43.555931 321.00868 50.293308 350.43945 82.001953 C 354.55664 86.4378 359.61151 86.711488 362.78906 82.671875 C 366.88257 77.46782 366.90076 77.48919 338.94727 51.583984 C 329.89078 43.191109 325.27242 39.017719 322.48047 37.095703 L 316.20117 37.095703 z M 346.85547 37.095703 C 347.65504 37.30784 348.41257 37.309482 349.15039 37.095703 L 346.85547 37.095703 z M 381.35156 37.513672 L 382.87891 39.128906 C 386.90914 43.391405 390.90367 47.184752 391.75586 47.558594 C 394.49583 48.760593 396.47483 48.426606 399.16992 46.306641 C 400.98826 44.876342 401.85847 43.155542 401.7832 41.232422 C 395.20864 39.372071 388.37605 38.117496 381.35156 37.513672 z M 366.64258 43.378906 C 363.64231 43.378906 359.80469 47.182878 359.80469 50.158203 C 359.80469 53.116144 360.62084 54.104572 382.50391 77.628906 C 399.49296 95.892191 400.05015 96.378906 403.92188 96.378906 C 409.15168 96.378906 412.80469 92.92464 412.80469 87.980469 C 412.80469 83.802002 412.83668 83.837479 393.30078 65.761719 C 370.18467 44.373328 369.0008 43.378906 366.64258 43.378906 z M 140.6582 44.367188 C 139.4341 44.253753 138.46557 44.860602 137.37695 45.949219 C 136.51265 46.813495 135.80469 48.745351 135.80469 50.240234 C 135.80469 52.468173 138.71918 55.654676 151.96484 67.917969 C 160.85232 76.146305 170.33944 84.791403 173.04688 87.128906 C 178.53173 91.864335 179.01553 92.025472 181.19141 89.849609 C 183.35195 87.689066 182.25744 85.527509 175.29688 78.201172 C 171.99262 74.723299 163.50014 65.691407 156.42383 58.128906 C 147.27836 48.3551 143.35124 44.616743 140.6582 44.367188 z M 107.94727 44.638672 C 103.41395 46.418427 99.0349 48.498156 94.824219 50.841797 C 100.19321 56.079115 109.06618 64.314277 124.49609 78.580078 C 127.35066 81.219295 130.58019 83.378906 131.67383 83.378906 C 134.24798 83.378906 136.80469 80.79276 136.80469 78.189453 C 136.80469 75.796645 135.74967 74.543511 114.01172 51.128906 C 111.64962 48.58462 109.71146 46.512004 107.94727 44.638672 z M 413.01367 51.294922 C 411.18189 51.275178 409.66267 52.366635 407.72852 54.300781 C 402.71123 59.318069 403.67744 61.74869 415.91016 74.878906 C 426.85472 86.626451 444.44817 103.16597 447.30469 104.39258 C 450.06425 105.57754 451.32439 105.55429 454.14844 104.26758 C 456.8473 103.03789 458.80469 99.534747 458.80469 95.935547 C 458.80469 92.919842 443.74705 76.214227 428.14453 61.921875 C 419.988 54.450267 416.06665 51.327828 413.01367 51.294922 z M 188.35547 55.378906 C 185.93473 55.378906 183.80469 57.117831 183.80469 59.095703 C 183.80469 59.820401 192.91718 69.595414 204.05469 80.818359 C 215.19218 92.041305 225.00296 101.25839 225.85547 101.30078 C 226.70797 101.34314 227.94546 100.83774 228.60547 100.17773 C 230.94547 97.837738 229.88504 94.685134 225.55469 91.103516 C 219.74202 86.295892 202.16875 68.788495 195.75977 61.419922 C 192.38045 57.534647 189.73838 55.378906 188.35547 55.378906 z M 83.972656 57.751953 C 80.099086 60.553037 76.416604 63.600004 72.951172 66.875 C 84.113492 76.788839 85.855465 76.619763 89.490234 73.205078 C 93.067701 69.844224 93.806303 68.776315 83.972656 57.751953 z M 234.51758 65.564453 C 232.8647 65.799518 232.30469 66.555278 232.30469 68.556641 C 232.30469 70.637105 236.40892 75.701907 250.70898 91.273438 C 260.83125 102.2957 269.60624 111.51842 270.20898 111.76758 C 275.49042 113.95081 280.44503 108.52839 277.40625 103.89062 C 276.60724 102.67119 267.12673 93.479686 256.33984 83.462891 C 241.37311 69.564675 236.20506 65.324468 234.51758 65.564453 z M 452.13281 72.179688 C 453.00286 73.332877 454.29551 74.815961 456.09375 76.705078 C 454.81626 75.158484 453.49242 73.652539 452.13281 72.179688 z M 280.91016 73.53125 C 279.95698 73.608801 279.1947 74.131466 278.37695 74.949219 C 275.70026 77.625906 276.59761 80.166575 282.50195 86.636719 C 293.79166 99.008281 310.37284 116.80635 313.64062 120.05859 C 315.47535 121.88458 318.00225 123.37891 319.25586 123.37891 C 322.90032 123.37891 326.80469 119.6906 326.80469 116.24805 C 326.80469 112.59036 324.3261 109.9318 301.30469 88.90625 C 288.34751 77.072396 283.76968 73.298598 280.91016 73.53125 z M 64.228516 76.138672 C 61.289757 79.647701 58.566213 83.342905 56.082031 87.208984 C 61.754516 92.643215 71.606067 101.84572 86.496094 115.58789 C 92.631403 121.25023 97.07267 122.08134 98.96875 117.91992 C 99.862403 115.95855 99.760737 114.95825 98.464844 112.98047 C 95.494357 108.44693 74.809311 86.46033 64.228516 76.138672 z M 328.4668 81.457031 C 325.98988 81.562153 323.92377 82.82478 322.94336 84.976562 C 321.93833 87.182351 322.03426 88.173741 323.52148 90.921875 C 325.36293 94.324534 358.57345 130.40221 362.20703 132.94727 C 366.47431 135.93619 372.25988 133.92772 374.44531 128.69727 C 375.76118 125.54793 375.79244 124.58837 374.64844 122.20117 C 372.9288 118.61283 334.04001 82.525842 331.05469 81.748047 C 330.16309 81.515752 329.29244 81.421991 328.4668 81.457031 z M 103.21094 81.785156 C 99.687962 82.06841 96.623737 86.44421 98.591797 89.960938 C 99.123128 90.910389 108.50085 99.937589 119.43164 110.02344 C 135.34377 124.70557 139.80307 128.31464 141.80469 128.12109 C 143.5322 127.95405 144.40274 127.1922 144.62109 125.65625 C 144.86057 123.97159 141.59223 119.84249 131.12109 108.60352 C 123.5223 100.44752 115.1614 91.447345 112.54102 88.603516 C 109.92063 85.759686 106.82688 82.92597 105.66602 82.304688 C 104.86034 81.873503 104.02393 81.71979 103.21094 81.785156 z M 376.01953 89.132812 C 373.76529 89.133315 371.64287 90.028614 370.13867 91.777344 C 366.6471 95.836526 367.12761 99.461131 371.90039 105.06836 C 378.38426 112.68587 393.59914 128.04846 402.0625 135.52539 C 408.32853 141.06109 410.45516 142.37891 413.13672 142.37891 C 419.82777 142.37891 423.23654 134.73935 419.25586 128.66406 C 417.17771 125.49239 384.49468 92.876466 381.29102 90.777344 C 379.60608 89.673326 377.77283 89.132422 376.01953 89.132812 z M 149.93555 92.769531 C 148.14124 92.854828 146.80469 94.12936 146.80469 96.550781 C 146.80469 97.717957 154.59566 106.32156 166.55469 118.36133 C 186.39224 138.33281 189.0101 140.24862 191.82617 136.85547 C 193.77539 134.50679 192.26573 132.41759 181.24219 122.20312 C 171.30556 112.9958 159.83551 101.23003 155.81836 96.123047 C 153.98232 93.788904 151.72985 92.684234 149.93555 92.769531 z M 422.40234 97.378906 C 415.71733 97.378906 411.62639 104.43848 414.83594 110.43555 C 415.4027 111.49456 425.13096 120.91432 436.45312 131.36914 C 458.01281 151.27724 460.31642 152.7246 464.23242 148.80859 C 466.2663 146.77471 467.21413 142.92596 466.14648 141.0332 C 465.27373 139.48599 438.83566 110.45061 430.72266 102.12891 C 426.85119 98.157842 425.48583 97.378906 422.40234 97.378906 z M 49.558594 98.878906 C 47.536971 103.08421 45.781506 107.44292 44.302734 111.92969 C 46.855504 113.71699 47.7217 113.49145 50.121094 112.22852 C 53.0178 110.70381 53.772676 109.43809 53.791016 106.06641 C 53.798584 104.67559 52.740945 102.75441 49.558594 98.878906 z M 197.87891 103.01562 C 195.89373 102.97937 193.58973 105.10623 194.00586 106.94922 C 194.17083 107.67987 202.81147 117.52553 213.20703 128.82812 C 230.11332 147.20952 232.4392 149.37891 235.25586 149.37891 C 239.09513 149.37891 240.80469 147.82854 240.80469 144.34766 C 240.80469 141.55134 239.30296 139.99006 213.42188 115.87891 C 206.33738 109.2789 199.7148 103.56084 198.70312 103.17188 C 198.44146 103.07128 198.1625 103.0208 197.87891 103.01562 z M 468.9375 108.39648 C 467.00609 108.33429 465.27461 109.23962 463.80078 111.11328 C 460.39219 115.44661 461.71134 118.68788 470.06641 126.50781 C 474.04822 130.23461 477.64219 133.306 478.05469 133.33203 C 478.46232 133.35777 478.79491 129.23855 478.80273 124.1543 C 477.92839 119.88454 476.80319 115.70821 475.44922 111.63867 L 475.27148 111.48242 C 473.00015 109.48816 470.86891 108.45868 468.9375 108.39648 z M 244.19531 110.80273 C 241.33293 110.90279 238.98737 113.70774 239.69336 117.30078 C 239.91947 118.45161 254.85523 135.03608 275.5625 157.12891 C 277.8568 159.57673 279.45894 160.37891 282.05273 160.37891 C 286.82781 160.37891 290.63857 155.58016 289.27539 151.28516 C 288.71108 149.50717 251.51835 114.54674 247.13672 111.67578 C 246.16186 111.03703 245.14944 110.76938 244.19531 110.80273 z M 291.29492 118.37891 C 287.94901 118.37891 284.80469 121.7199 284.80469 125.27734 C 284.80469 128.30227 285.01139 128.54578 313.53711 159.12891 C 324.43852 170.81657 325.14497 171.37891 328.92969 171.37891 C 334.23432 171.37891 337.80469 167.92976 337.80469 162.80664 C 337.80469 158.69789 338.44583 159.4191 317.80469 140.30078 C 295.89719 120.00955 293.92567 118.37891 291.29492 118.37891 z M 66.638672 119.45898 C 65.893841 119.44721 65.054556 119.60832 64.107422 119.94141 C 61.701622 120.78748 61.304688 121.4644 61.304688 124.72656 C 61.304688 128.38868 62.05088 129.21594 81.804688 147.43555 C 93.079687 157.83486 102.83616 166.35144 103.48438 166.36133 C 104.87937 166.3822 107.80469 163.63473 107.80469 162.30469 C 107.80469 161.19178 71.046485 121.53052 68.607422 120.01172 C 68.033877 119.65459 67.383502 119.47076 66.638672 119.45898 z M 338.34766 126.49805 C 336.39923 126.47446 334.63231 127.39699 332.72852 129.30078 C 327.16599 134.86331 328.48081 137.25426 348.12305 157.2793 C 354.27332 163.54943 362.35541 171.31193 366.08203 174.5293 C 373.91675 181.29339 376.52884 181.80907 380.88281 177.45508 C 384.28738 174.05052 384.55673 171.12054 381.86914 166.71289 C 379.40136 162.6657 347.43899 130.73605 343.375 128.25781 C 341.48829 127.10729 339.8631 126.51639 338.34766 126.49805 z M 40.390625 127.6543 C 39.493652 132.89821 38.964557 138.27018 38.837891 143.74609 C 42.207736 146.87048 45.988536 150.37414 48.546875 152.70117 C 55.0535 158.61949 57.558071 159.48296 60.289062 156.75195 C 63.537746 153.50327 61.659197 150.51984 45.304688 132.9375 L 40.390625 127.6543 z M 113.14844 130.37891 C 110.91093 130.37891 108.80469 132.17891 108.80469 134.0918 C 108.80469 134.81423 117.91719 144.59374 129.05469 155.82422 C 140.1922 167.05471 150.00296 176.27343 150.85547 176.31055 C 151.70796 176.34762 152.94546 175.83774 153.60547 175.17773 C 155.93709 172.84612 154.88091 169.68368 150.55469 166.03711 C 144.02508 160.53329 131.04029 147.77774 122.6543 138.62891 C 118.15369 133.71889 114.30524 130.37891 113.14844 130.37891 z M 384.54883 134.73828 C 383.21694 134.71679 382.00091 135.247 380.56445 136.08594 C 376.75088 138.31318 374.93995 143.18469 376.58398 146.79297 C 377.87008 149.61565 417.09287 186.14764 420.17188 187.39062 C 421.34545 187.86439 422.39619 188.27953 422.50781 188.31445 C 422.61943 188.34933 423.86915 187.85132 425.2832 187.20703 C 428.22619 185.86609 429.50414 182.16833 428.19922 178.77148 C 427.70771 177.49203 419.01167 167.43807 408.875 156.42969 C 393.59656 139.83737 388.54448 134.80276 384.54883 134.73828 z M 159.46289 140.57031 C 157.86379 140.79818 157.30469 141.57448 157.30469 143.57031 C 157.30469 145.66974 161.3543 150.67085 175.69336 166.2832 C 185.80651 177.29439 194.58151 186.50951 195.19336 186.76172 C 197.61952 187.76173 199.89809 187.28551 201.80469 185.37891 C 202.90469 184.27891 203.80469 182.94991 203.80469 182.42578 C 203.80469 180.01847 201.07791 176.44405 195.375 171.37891 C 191.96911 168.35391 182.98007 160.11437 175.40039 153.07031 C 165.22576 143.61467 161.0554 140.3434 159.46289 140.57031 z M 431.59375 145.86914 C 428.04341 145.96531 424.8014 148.96081 424.82031 152.7832 C 424.82874 154.48546 425.16624 156.34467 425.57031 156.91406 C 426.27367 157.90517 448.53376 178.73407 461.47852 190.51367 C 466.4817 195.06652 468.14666 196.03674 470.25977 195.63281 C 473.21282 195.06829 475.19362 192.14365 474.35156 189.5918 C 473.67048 187.52781 472.26755 185.92363 452.10156 164.17969 C 443.4139 154.81223 435.29718 146.76242 434.06445 146.29102 C 433.24843 145.97897 432.41306 145.84695 431.59375 145.86914 z M 206.05078 148.49414 C 205.02264 148.53112 204.23953 149.08664 203.37695 149.94922 C 200.77612 152.55005 201.56133 155.19911 206.55469 160.65625 C 222.53052 178.11601 238.37334 195.12382 240.0625 196.62891 C 244.42515 200.51615 251.80469 196.91127 251.80469 190.89258 C 251.80469 187.82574 250.0643 185.93859 230.64453 167.96484 C 214.42145 152.94975 209.1352 148.3832 206.05078 148.49414 z M 254.1582 156.47656 C 249.03037 156.13214 245.26398 161.37512 248.33398 166.06055 C 250.68307 169.6457 285.47782 207.08528 287.625 208.33789 C 293.97069 212.03987 302.70484 204.37695 299.88867 197.57812 C 298.56387 194.37977 259.97898 158.34357 256.42383 156.98438 C 255.65174 156.68919 254.89075 156.52577 254.1582 156.47656 z M 477.51953 156.55859 C 476.91292 156.49521 476.04003 157.14356 474.80469 158.37891 C 472.11866 161.06494 472.28756 163.6103 475.39453 167.30273 C 476.81844 168.99494 478.16844 170.37891 478.39453 170.37891 C 478.62065 170.37891 478.80469 167.22891 478.80469 163.37891 C 478.80469 158.74635 478.53055 156.66423 477.51953 156.55859 z M 300.57812 163.91797 C 298.76312 163.94386 297.13836 164.82558 295.05469 166.70117 C 291.61959 169.79321 292.08585 174.31323 296.37695 179.5332 C 301.70137 186.01016 320.35506 204.82569 328.08203 211.51367 C 333.39574 216.11289 335.56826 217.37891 338.15625 217.37891 C 344.84002 217.37891 348.22998 209.72675 344.24219 203.64062 C 341.00449 198.69925 307.44502 166.12703 304.19141 164.76758 C 302.8247 164.19653 301.66713 163.90243 300.57812 163.91797 z M 38.804688 165.39844 L 38.804688 179.77148 C 42.951825 183.57697 48.468607 188.66772 53.277344 193.14453 C 61.933849 201.2035 64.842222 203.35367 66.804688 203.14453 C 68.520314 202.9617 69.404731 202.18382 69.621094 200.66211 C 69.947822 198.3642 57.686204 184.34219 38.804688 165.39844 z M 75.439453 167.67383 C 73.543399 167.63243 71.804688 169.28569 71.804688 171.50977 C 71.804687 172.62903 80.143814 181.72984 92.326172 193.91016 C 110.73234 212.31324 113.05622 214.31546 114.88281 213.33789 C 117.38448 211.99905 118.24357 209.97666 117.13867 208.0332 C 116.68015 207.22668 111.75906 202.36204 106.20117 197.22266 C 100.64327 192.08326 92.172967 183.6039 87.378906 178.37891 C 82.584856 173.15391 77.805265 168.47704 76.757812 167.98633 C 76.322769 167.78252 75.877004 167.68338 75.439453 167.67383 z M 348.8457 172.36914 C 348.43472 172.35447 347.99987 172.37891 347.47266 172.37891 C 342.24851 172.37891 338.80469 175.90653 338.80469 181.25977 C 338.80469 185.60161 335.78773 182.43921 372.5625 216.62891 C 382.75485 226.10479 385.49304 227.18207 389.61719 223.33984 C 393.86003 219.38704 392.76133 217.37815 376.91211 200.10742 C 353.39726 174.48357 351.72258 172.47181 348.8457 172.36914 z M 122.90234 177.37891 C 121.35121 177.37891 118.68108 180.51077 119.00586 181.94922 C 119.17084 182.67987 127.83178 192.54758 138.25195 203.87695 C 156.62916 223.85767 157.30253 224.46748 160.73242 224.17773 C 163.58014 223.93718 164.45896 223.33337 165.24805 221.07617 C 165.90783 219.1889 165.8829 217.71902 165.17188 216.57617 C 163.63295 214.10264 124.03087 177.37891 122.90234 177.37891 z M 394.65039 183.53516 C 394.4525 183.54174 394.24931 183.55778 394.03516 183.57617 C 389.48534 183.9669 386.22906 187.94744 387.22266 191.90625 C 387.59644 193.39552 390.91016 197.40072 394.60352 200.82812 C 398.28961 204.24877 407.70083 212.972 415.51758 220.21289 C 423.7271 227.81761 430.56148 233.37891 431.69727 233.37891 C 434.31694 233.37891 436.80469 230.76229 436.80469 228.00977 C 436.80469 226.5071 430.43321 218.88216 417.18555 204.5293 C 399.33717 185.19189 397.61878 183.43644 394.65039 183.53516 z M 169.11914 185.88281 C 166.00526 186.03887 163.44732 189.08274 164.71094 192.53711 C 165.1867 193.8377 191.70985 223.08333 201.57031 233.17969 C 206.4495 238.17559 215.90418 233.60262 214.25781 227.04297 C 213.81462 225.27712 206.87429 218.15085 194.05078 206.29492 C 183.30837 196.36307 173.51882 187.58189 172.29688 186.78125 C 171.25651 186.09957 170.1571 185.83079 169.11914 185.88281 z M 216.93945 193.6543 C 213.80889 193.47124 210.36586 196.47257 210 200.11914 C 209.72645 202.84554 211.78512 205.4077 229.79688 224.76953 C 249.51047 245.9608 249.97459 246.37891 253.89648 246.37891 C 260.50249 246.37891 264.63443 240.30629 262.25195 234.09766 C 261.39181 231.85618 221.01194 194.99854 218.25195 193.93555 C 217.82734 193.77201 217.38668 193.68045 216.93945 193.6543 z M 440.7793 194.37891 C 437.36575 194.37891 435.80469 196.10451 435.80469 199.88086 C 435.80469 202.60739 437.71125 204.73263 451.55469 217.43164 C 460.21719 225.37801 469.55469 234.00677 472.30469 236.60742 C 475.05469 239.20805 477.64219 241.34556 478.05469 241.35742 C 478.46718 241.36928 478.80469 239.29875 478.80469 236.75781 C 478.80469 232.29521 478.45835 231.75892 468.61719 221.00781 C 449.14648 199.73682 443.54476 194.37891 440.7793 194.37891 z M 261.88086 201.50781 C 260.13299 201.53778 259.25613 202.24205 257.48438 204.34766 C 256.0107 206.09904 254.80469 208.62735 254.80469 209.96484 C 254.80469 213.69604 276.39954 236.97392 293.11719 251.26562 C 298.88934 256.20016 301.86095 256.47696 305.88281 252.45508 C 310.51088 247.82702 309.9065 244.64013 302.98242 237.16602 C 299.77926 233.70838 295.84176 229.37196 294.23242 227.53125 C 292.62309 225.69054 286.01755 219.23667 279.55469 213.1875 C 269.78138 204.03978 267.1615 202.10192 263.98438 201.67578 C 263.14241 201.56285 262.46348 201.49782 261.88086 201.50781 z M 38.804688 205.72266 L 38.804688 214.98633 C 42.525398 219.01734 47.952831 224.67142 54.054688 230.82422 C 65.192184 242.05471 75.002976 251.27343 75.855469 251.31055 C 80.239064 251.50121 81.119387 245.5574 77.167969 242.44922 C 72.856293 239.05765 57.935373 224.54083 48.570312 214.62695 C 44.537427 210.35773 40.573388 206.77499 38.804688 205.72266 z M 310.29688 209.7832 C 304.82798 209.52029 299.43534 215.58932 301.36523 221.06445 C 301.88209 222.53076 308.60468 229.5636 316.30469 236.69336 C 324.00469 243.82311 333.11751 252.30749 336.55469 255.54883 C 339.99184 258.79018 343.81685 261.85012 345.05469 262.34766 C 346.29252 262.8452 347.39619 263.27953 347.50781 263.31445 C 347.61943 263.34933 348.86915 262.85132 350.2832 262.20703 C 353.22343 260.86739 354.5062 257.16373 353.19922 253.79102 C 351.81502 250.21901 315.80092 211.61824 312.625 210.30273 C 311.86172 209.98657 311.07815 209.82076 310.29688 209.7832 z M 84.763672 215.58008 C 83.035328 215.4869 81.807543 216.58757 81.822266 218.59766 C 81.838475 220.81028 86.849126 226.60032 111.27148 252.62891 C 120.97491 262.97052 123.13495 264.04863 126.80469 260.37891 C 128.84719 258.33639 129.35565 255.66829 128.04102 253.87891 C 127.63694 253.32891 121.67968 247.70526 114.80469 241.38281 C 107.92969 235.06036 99.462411 227.18536 95.986328 223.88281 C 92.510245 220.58026 88.628537 217.24555 87.361328 216.47266 C 86.438962 215.91009 85.549283 215.62243 84.763672 215.58008 z M 356.33594 220.55664 C 350.92939 220.84701 347.70034 228.99017 352.00195 233.625 C 356.78528 238.77887 391.36961 270.08205 392.80469 270.55664 C 397.41468 272.08116 401.21012 267.17184 398.55469 263.11914 C 394.81025 257.40441 360.33083 221.29781 358.07812 220.73242 C 357.47815 220.58184 356.89524 220.5266 356.33594 220.55664 z M 131.98242 223.37891 C 129.3757 223.37891 126.80469 225.94438 126.80469 228.54688 C 126.80469 229.66512 129.6351 233.55423 133.12109 237.22656 C 136.59443 240.88559 141.43193 246.11294 143.87109 248.84375 C 153.81032 259.97143 164.39896 270.95121 166.29297 272.09375 C 171.0897 274.98738 176.80469 271.58247 176.80469 265.83203 C 176.80469 263.28988 175.83017 261.74659 172.05469 258.31055 C 169.44219 255.93292 161.22969 248.27354 153.80469 241.29102 C 136.70258 225.20807 134.47342 223.37891 131.98242 223.37891 z M 179.03711 231.37891 C 173.61332 231.37891 170.43898 236.64406 173.26367 240.95508 C 175.51798 244.39557 208.16158 279.72733 211.54492 282.38867 C 213.62894 284.02801 215.14778 284.42166 217.74609 284 C 222.59512 283.21311 224.86442 280.56321 225.06836 275.44922 C 225.22364 271.5551 224.83377 270.80324 220.77148 267.14844 C 215.70273 262.58812 196.13016 244.5136 187.72266 236.62891 C 183.46653 232.63745 181.38496 231.37891 179.03711 231.37891 z M 403.69336 231.82617 C 399.69411 231.91767 396.56755 236.34361 398.63672 240.04102 C 399.19291 241.03488 408.57063 250.06887 419.47656 260.11719 C 435.39929 274.78781 439.79719 278.33699 441.80469 278.13281 C 443.52136 277.95821 444.40355 277.18772 444.61914 275.67188 C 444.85824 273.99094 440.44524 268.59309 426.11914 253.04492 C 415.77145 241.81454 406.4688 232.37528 405.44727 232.06836 C 404.85295 231.8898 404.26468 231.8131 403.69336 231.82617 z M 225.46289 239.03125 C 219.25657 239.14479 215.32271 246.87581 220.02148 252.99414 C 221.24002 254.58081 222.51201 256.1039 222.84961 256.37891 C 223.1872 256.6539 226.28836 260.0289 229.74023 263.87891 C 233.19211 267.7289 241.25537 275.71641 247.6582 281.62891 C 257.94108 291.12431 259.71788 292.37891 262.87891 292.37891 C 268.56055 292.37891 272.67131 286.78596 270.73438 281.69141 C 268.85447 276.7469 234.5249 242.21121 229.10352 239.81055 C 227.83868 239.25046 226.61221 239.01022 225.46289 239.03125 z M 450.18945 242.56641 C 449.37215 242.4888 448.71467 242.86932 448.00586 243.57812 C 445.21986 246.36412 447.07841 249.01381 462.55469 264.31055 L 478.30469 279.87891 L 478.61328 274.95117 C 478.91357 270.15332 478.78161 269.88929 473.58984 264.95117 C 470.65695 262.16155 464.60072 255.94141 460.13086 251.12891 C 454.5569 245.12765 451.98751 242.73715 450.18945 242.56641 z M 273.55859 247.37891 C 267.21996 247.37891 263.43161 250.91996 263.5957 256.69141 C 263.69432 260.15958 262.48643 258.87081 287.15625 281.87109 C 308.82321 302.07173 310.54776 303.06407 314.73242 297.74414 C 318.60262 292.82398 319.12882 293.65503 296.87305 269.48828 C 277.77214 248.74729 276.3282 247.37891 273.55859 247.37891 z M 47.800781 252.97266 C 45.896743 253.0022 43.610091 255.19353 44.005859 256.96094 C 44.170828 257.69767 52.827292 267.54333 63.242188 278.83984 C 80.47548 297.53194 82.473217 299.37891 85.457031 299.37891 C 88.908603 299.37891 90.804688 297.30778 90.804688 293.53906 C 90.804688 291.52124 52.016558 254.36939 48.583984 253.09961 C 48.336547 253.00808 48.072787 252.96844 47.800781 252.97266 z M 319.00781 258.37891 C 315.54786 258.37891 311.80469 262.22745 311.80469 265.78516 C 311.80469 268.08629 320.20009 276.68369 342.00195 296.71289 C 349.28279 303.40174 355.54558 308.37891 356.68164 308.37891 C 359.34247 308.37891 361.80469 305.7588 361.80469 302.92969 C 361.80469 300.15999 336.14936 272.04804 334.5332 273.04688 C 333.91967 273.42606 333.79799 273.19946 334.23633 272.49023 C 334.69631 271.74596 332.53212 268.84657 328.52148 264.83594 C 323.39561 259.71006 321.43488 258.37891 319.00781 258.37891 z M 94.103516 260.63477 C 93.737807 260.62414 93.407973 260.68837 93.072266 260.79492 C 90.325339 261.66676 88.72774 265.4793 90.078125 267.94336 C 90.936384 269.50942 109.74951 290.28681 125.61523 307.19141 C 128.22182 309.96868 129.32179 310.45361 132.41602 310.19141 C 136.94305 309.80778 140.39462 305.8646 139.46094 302.14453 C 139.11184 300.75359 130.92898 292.3557 120.08203 282.25781 C 100.90638 264.40641 96.663477 260.70913 94.103516 260.63477 z M 141.68359 268.59766 C 138.63051 268.71735 135.3372 271.75427 134.99805 275.14062 C 134.72224 277.89441 136.72422 280.38601 154.79297 299.79102 C 174.50595 320.96185 174.97055 321.37891 178.89453 321.37891 C 187.18661 321.37891 190.81735 312.6059 185.05469 306.49414 C 183.54219 304.89002 175.77969 297.58498 167.80469 290.26172 C 159.82969 282.93847 151.50469 275.23705 149.30469 273.14648 C 147.10469 271.05594 144.25413 269.06981 142.96875 268.73242 C 142.5517 268.62296 142.11975 268.58056 141.68359 268.59766 z M 365.31445 269.45312 C 364.08381 269.55265 363.09724 270.46403 361.93359 271.94336 C 360.53712 273.7187 360.15127 275.13988 360.67969 276.56836 C 361.09941 277.70296 370.63794 287.11439 381.875 297.48242 C 393.11207 307.85048 402.83616 316.34328 403.48438 316.35547 C 404.8671 316.38154 407.80469 313.64184 407.80469 312.32617 C 407.80469 311.4039 404.54665 307.79394 381.45117 283.12891 C 371.90898 272.93824 368.02186 269.23416 365.31445 269.45312 z M 187.93164 276.30859 C 186.14148 276.33486 184.62433 277.40497 182.72852 279.30078 C 178.21212 283.81717 178.82022 286.2485 186.71094 295.20312 C 194.14461 303.6391 210.31284 319.63888 218.11719 326.2832 C 223.89114 331.19893 226.86641 331.47149 230.88281 327.45508 C 236.0462 322.29169 235.22042 320.07533 223.25586 306.98633 C 217.4533 300.63841 207.96066 291.15536 202.16211 285.91211 C 194.65566 279.12451 190.91524 276.26481 187.93164 276.30859 z M 38.804688 279.49414 L 38.804688 288.29688 C 39.973449 288.32832 40.994884 287.85712 41.826172 286.85547 C 43.250861 285.13882 42.67816 283.42173 38.804688 279.49414 z M 412.16211 280.39258 C 411.3808 280.46876 410.6976 280.88638 410.00586 281.57812 C 409.34587 282.23812 408.80469 283.35788 408.80469 284.06641 C 408.80469 284.77493 417.91718 294.55093 429.05469 305.79102 C 440.19218 317.0311 450.00296 326.26133 450.85547 326.30273 C 451.70797 326.34412 452.94546 325.83774 453.60547 325.17773 C 456.37244 322.41077 454.74659 319.78694 444.47656 310.43945 C 438.79547 305.26868 429.91687 296.38812 424.74609 290.70703 C 417.73548 283.00451 414.50605 280.16404 412.16211 280.39258 z M 234.42578 284.66992 C 229.43911 285.04451 224.90762 290.66447 226.20508 295.83398 C 226.74706 297.99341 262.79676 332.58438 268.77734 336.68359 C 271.96785 338.87044 272.97487 338.81986 276.16992 336.30664 C 281.4701 332.13752 280.33077 329.87363 263.94727 312.04688 C 240.93439 287.00671 239.4865 285.56883 236.57422 284.84766 C 235.85894 284.67053 235.13816 284.61641 234.42578 284.66992 z M 458.92773 290.46484 C 457.80783 290.5669 457.30469 291.61969 457.30469 293.58594 C 457.30469 295.62674 459.89074 299.12882 467.80469 307.80469 C 473.5797 314.13569 478.41718 319.33041 478.55469 319.34766 C 478.69218 319.36494 478.7987 316.34141 478.79102 312.62891 L 478.77539 305.87891 L 470.19922 298.07031 C 464.37482 292.76752 460.79425 290.29475 458.92773 290.46484 z M 281.50977 295.82812 C 275.76804 295.94177 272.19039 303.94657 277.08984 308.67383 C 279.45259 310.95356 301.46465 331.37532 310.29297 339.47852 C 313.04973 342.00886 316.17931 344.5501 317.24609 345.125 C 319.48738 346.33282 321.77086 345.76081 323.55469 343.54688 C 325.46022 341.18188 325.06408 339.17095 322.04297 335.87891 C 295.57902 307.04174 285.95576 297.00657 284.08398 296.29492 C 283.19376 295.95646 282.33001 295.81189 281.50977 295.82812 z M 56.050781 298.49414 C 55.022643 298.53112 54.23953 299.08664 53.376953 299.94922 C 50.672384 302.6538 51.618304 305.32543 57.539062 311.70312 C 60.69238 315.0998 66.404033 321.25391 70.232422 325.37891 C 74.0608 329.5039 80.516911 336.36641 84.578125 340.62891 C 92.599148 349.04748 94.663463 349.85143 99.169922 346.30664 C 101.07731 344.80629 101.80469 343.31179 101.80469 340.89258 C 101.80469 337.82575 100.06431 335.93858 80.644531 317.96484 C 64.421447 302.94975 59.135197 298.3832 56.050781 298.49414 z M 104.67383 306.49023 C 104.31686 306.48636 103.9626 306.53231 103.54492 306.57422 C 99.206791 307.00951 96.042237 311.40932 97.603516 314.83594 C 98.843687 317.55784 134.91288 356.75328 137.64453 358.34766 C 144.02428 362.07131 152.69622 354.35977 149.85156 347.49219 C 149.19379 345.90416 142.09799 338.59165 134.08203 331.24219 C 109.73641 308.92078 107.17259 306.51734 104.67383 306.49023 z M 329.12695 306.57031 C 325.54281 306.32729 321.68466 310.57501 323.39844 314.36719 C 323.89708 315.47058 333.30468 324.70352 344.30469 334.88477 C 360.41196 349.79315 364.79128 353.34528 366.80469 353.13672 C 372.63441 352.53281 370.6519 349.36136 351.53711 328.72461 C 341.4266 317.80907 332.40584 308.2665 331.49219 307.51758 C 330.76603 306.92235 329.95406 306.6264 329.12695 306.57031 z M 151.91211 314.22656 C 146.39522 314.24734 142.80469 317.25462 142.80469 321.99219 C 142.80469 324.36391 143.9257 326.57359 146.90039 330.06836 C 153.38426 337.68587 168.59914 353.04847 177.0625 360.52539 C 186.25875 368.6498 189.86433 369.47256 194.11914 364.41602 C 198.16307 359.61009 196.71149 356.27134 185.17188 343.85156 C 172.69653 330.42471 155.30812 314.41432 153.03906 314.26367 C 152.65462 314.23815 152.2799 314.22518 151.91211 314.22656 z M 38.804688 315.32812 L 38.804688 330.45703 C 46.021244 338.11228 48.348445 338.83516 51.892578 335.29102 C 55.489264 331.69434 54.8786 330.22677 38.804688 315.32812 z M 375.4375 317.67188 C 373.53144 317.63055 371.80469 319.29684 371.80469 321.55859 C 371.80469 322.73621 379.53444 331.26443 391.55469 343.34961 C 404.8375 356.70414 412.02996 363.2352 413.51953 363.29297 C 416.05866 363.39156 418.28945 360.06048 417.09766 357.94922 C 416.66191 357.17728 411.88531 352.49053 406.48242 347.53516 C 401.07952 342.57977 392.61384 334.10407 387.66992 328.70117 C 382.726 323.29828 377.82017 318.47704 376.76758 317.98633 C 376.32754 317.78119 375.87736 317.68141 375.4375 317.67188 z M 197.39258 322.37891 C 192.24069 322.37891 188.80469 325.94197 188.80469 331.28711 C 188.80469 335.20867 189.2243 335.67435 210.35547 355.33203 C 227.40993 371.19729 232.4678 375.37536 234.60547 375.36328 C 237.8659 375.34479 239.1423 374.57155 240.65625 371.69531 C 243.04043 367.16573 243.27077 367.49735 220.91992 343.37891 C 201.17215 322.0694 201.5207 322.37891 197.39258 322.37891 z M 422.83008 327.37891 C 421.54219 327.37891 418.80279 330.32891 418.81641 331.70117 C 418.83196 333.26551 456.44347 373.7047 458.61523 374.49219 C 462.87312 376.03615 467.54348 370.40376 465.17969 366.57617 C 463.72758 364.22486 423.91845 327.37891 422.83008 327.37891 z M 244.01953 333.37891 C 238.69177 333.37891 234.83792 340.58439 238.05469 344.53125 C 239.1627 345.89075 260.32124 365.67846 274.51367 378.62891 C 279.98646 383.62277 282.63425 384.40677 285.23438 381.80664 C 288.55695 378.48409 287.12938 376.05084 272.60938 360.28906 C 249.70754 335.42864 247.52838 333.37891 244.01953 333.37891 z M 469.35156 335.6582 C 468.67927 335.65467 468.01783 335.87222 467.19727 336.24609 C 465.4197 337.05601 464.80469 338.13709 464.80469 340.45703 C 464.80469 342.92612 466.21347 345.0896 471.55469 350.83008 L 478.30469 358.08594 L 478.5957 350.20117 C 478.88261 342.42649 478.84358 342.27997 475.69922 339.59766 C 472.35528 336.7451 470.8306 335.66597 469.35156 335.6582 z M 66.457031 343.37891 C 63.197772 343.37891 59.804688 346.92515 59.804688 350.33398 C 59.804688 353.35987 59.626901 353.15014 87.636719 383.12891 C 99.468384 395.79228 100.19142 396.37891 103.95703 396.37891 C 112.18474 396.37891 115.80098 387.56425 110.05469 381.51758 C 107.24835 378.56453 85.198219 358.10965 74.599609 348.62891 C 71.164203 345.55584 67.787891 343.37891 66.457031 343.37891 z M 290.80859 344.42578 C 289.17849 344.45838 287.57647 344.95051 286.80273 345.88281 C 286.11664 346.7095 285.55469 348.57889 285.55469 350.03711 C 285.55469 352.95397 284.73484 352.10509 310.80469 376.13867 C 319.87969 384.50485 327.83616 391.35755 328.48438 391.36523 C 329.90608 391.38237 332.80469 388.62494 332.80469 387.25586 C 332.80469 386.71645 329.7672 383.02686 326.05469 379.05664 C 322.34219 375.08642 314.12968 366.26163 307.80469 359.44727 C 301.47969 352.63291 295.71117 346.45548 294.98438 345.71875 C 294.09742 344.81967 292.4387 344.39319 290.80859 344.42578 z M 112.96289 351.30078 C 111.15977 351.3104 109.64056 352.39069 107.72852 354.30273 C 103.2167 358.81454 103.82266 361.25466 111.6582 370.12305 C 119.14463 378.59633 135.50414 394.79819 143.11719 401.28125 C 145.76314 403.53447 148.77768 405.37891 149.81836 405.37891 C 155.39498 405.37891 159.69066 400.04266 158.36523 394.76172 C 157.52852 391.42799 141.71097 374.28974 127.46484 361.2793 C 119.75988 354.24266 115.96809 351.28474 112.96289 351.30078 z M 38.804688 351.47852 L 38.804688 369.60547 L 38.960938 369.77539 C 44.545906 375.88187 50.194913 381.8914 51.515625 383.12891 C 56.562541 387.85786 64.138672 384.88964 64.138672 378.18359 C 64.138672 375.59848 63.048894 374.00558 58.222656 369.54102 C 54.968482 366.53072 47.017188 359.13782 40.554688 353.11133 L 38.804688 351.47852 z M 337.6875 355.42578 C 336.67603 355.32715 335.83993 355.74406 335.00586 356.57812 C 334.34587 357.23812 333.80469 358.36937 333.80469 359.0918 C 333.80469 359.81423 342.91719 369.59374 354.05469 380.82422 C 365.1922 392.05471 375.03844 401.27343 375.93359 401.31055 C 378.12637 401.40138 380.03406 398.93643 379.63281 396.5293 C 379.4531 395.45115 374.31508 389.91422 368.21484 384.22461 C 362.11462 378.53498 353.33962 369.72575 348.71484 364.65039 C 342.98257 358.35962 339.91273 355.64278 337.6875 355.42578 z M 160.83203 359.89844 C 155.04781 359.54615 149.76555 365.10336 151.14258 370.58984 C 151.7333 372.94348 187.69849 407.62734 193.69141 411.62305 C 196.80126 413.69649 196.98162 413.71135 200.2832 412.20703 C 202.92938 411.00135 204.22314 408.07238 203.63867 404.61133 C 203.08169 401.31311 165.10123 360.67321 161.99414 360.05078 C 161.60588 359.973 161.21765 359.92192 160.83203 359.89844 z M 384.51953 365.56445 C 380.61677 366.11942 381.1657 369.94994 385.89648 375.18359 C 392.86556 382.89345 413.00048 404.59889 416.92188 408.62891 C 418.92879 410.6914 421.52279 412.37891 422.6875 412.37891 C 425.33947 412.37891 428.80469 409.01061 428.80469 406.43359 C 428.80469 405.19071 421.21332 397.40833 407.76953 384.86914 C 391.64085 369.82572 386.21739 365.32302 384.51953 365.56445 z M 207.56445 370.67773 C 207.07904 370.64671 206.58234 370.71698 206.01172 370.85938 C 204.52378 371.23068 202.51719 372.24394 201.55469 373.11133 C 199.79439 374.69769 199.203 379.98735 200.57031 381.91406 C 200.9744 382.48345 208.05469 389.2156 216.30469 396.87305 C 224.55469 404.5305 233.83184 413.15067 236.91992 416.0293 C 241.38321 420.18981 243.02376 421.14603 244.91992 420.69336 C 247.68241 420.0339 249.80469 417.7137 249.80469 415.35352 C 249.80469 413.84038 223.6013 384.61797 213.19922 374.53125 C 210.36242 371.78048 209.02068 370.7708 207.56445 370.67773 z M 431.43164 373.37891 C 428.84439 373.37891 426.80469 375.78704 426.80469 378.84375 C 426.80469 380.34705 441.23923 396.60786 459.01367 415.12891 C 463.24888 419.54203 465.76675 421.81689 467.58789 422.7832 C 469.84362 418.67692 471.84451 414.40981 473.56641 410 C 471.08019 407.30436 466.76726 403.23594 459.14844 396.19531 C 435.1999 374.06425 434.36655 373.37891 431.43164 373.37891 z M 477.57031 381.34961 C 476.08659 381.34945 473.70476 383.20687 472.81641 385.35156 C 471.53943 388.43442 471.6995 388.92581 475.73438 394.30859 L 477.72656 396.96875 C 477.9823 395.95113 478.2221 394.92736 478.44922 393.89844 L 478.59961 389.93555 C 478.76145 385.64441 478.68368 381.92392 478.42578 381.66602 C 478.20846 381.4487 477.91271 381.34965 477.57031 381.34961 z M 253.52734 381.37891 C 251.09758 381.37891 247.80469 384.96173 247.80469 387.60547 C 247.80469 389.11934 250.60459 392.42806 256.55469 397.94531 C 261.36719 402.40773 270.70468 411.08999 277.30469 417.24023 C 286.7933 426.08227 289.82789 428.36552 291.80469 428.15039 C 297.16814 427.56693 295.50956 424.23288 283.13672 410.73242 C 264.60599 390.51291 255.39175 381.37891 253.52734 381.37891 z M 75.599609 388.92383 C 73.770155 388.94015 72.146544 389.82017 70.054688 391.70312 C 66.366756 395.02274 67.033315 399.55896 72.029297 405.15039 C 82.43521 416.79653 88.030269 422.54845 98.267578 432.125 C 107.98687 441.21703 109.63712 442.37891 112.8418 442.37891 C 119.65845 442.37891 123.31533 434.85861 119.40234 428.88672 C 116.07822 423.81347 82.564026 391.17667 79.261719 389.79688 C 77.869585 389.21521 76.697282 388.91403 75.599609 388.92383 z M 40.466797 389.22656 C 42.590811 401.33795 46.698231 412.74662 52.441406 423.11523 C 53.187148 423.89439 54.160419 424.93415 54.804688 425.59961 C 60.644268 431.63124 64.025576 434.37924 65.605469 434.37891 C 72.126413 434.37726 77.120206 427.96874 74.857422 422.50586 C 73.883298 420.15417 61.161486 407.85923 40.466797 389.22656 z M 300.41211 392.67383 C 298.54406 392.63492 296.80469 394.29898 296.80469 396.51172 C 296.80469 397.6364 305.09539 406.67838 317.29883 418.86133 C 338.1098 439.63737 339.52535 440.63834 341.875 436.24805 C 343.27749 433.62736 342.61161 432.74415 331.66797 422.70703 C 326.36737 417.84559 317.87468 409.36981 312.79492 403.87305 C 307.71516 398.37628 302.72411 393.47704 301.70508 392.98633 C 301.27991 392.7816 300.8432 392.68281 300.41211 392.67383 z M 122.54102 397.33789 C 117.9777 397.09228 113.80469 400.57477 113.80469 406.23047 C 113.80469 409.99347 114.38237 410.70879 126.55469 422.02344 C 133.56719 428.54178 142.22968 436.6478 145.80469 440.03711 C 149.37968 443.4263 153.42968 447.12463 154.80469 448.25586 C 157.80031 450.72039 162.07065 450.97036 164.23242 448.80859 C 166.26613 446.77488 167.21425 442.92611 166.14648 441.03516 C 164.95069 438.91754 134.66561 405.8785 128.65039 400.12891 C 126.7695 398.33108 124.61525 397.44953 122.54102 397.33789 z M 347.05469 402.92969 C 346.48796 402.99903 345.97754 403.34864 345.32422 404.00195 C 344.43355 404.89262 343.84089 406.20862 344.00586 406.92578 C 344.47721 408.97478 381.87829 449.24027 383.6875 449.64648 C 385.5581 450.06654 387.76727 449.48461 389.55469 448.10156 C 390.91437 447.04951 391.22207 442.4871 390.04102 440.87695 C 388.34446 438.56408 351.12032 404.59349 349.125 403.53711 C 348.24529 403.07136 347.62142 402.86034 347.05469 402.92969 z M 169.07812 408.37891 C 165.49947 408.37891 161.80469 412.20043 161.80469 415.90234 C 161.80469 418.78562 162.46199 419.5011 179.80469 435.46289 C 187.77969 442.80289 196.64151 450.96175 199.49609 453.59375 C 204.94336 458.61637 207.6236 459.41745 210.23438 456.80664 C 213.52043 453.52056 212.09235 451.10085 197.56641 435.33398 C 173.6136 409.33501 172.60186 408.37891 169.07812 408.37891 z M 394.01367 410.62305 C 393.66789 410.63195 393.34503 410.70681 393.00586 410.81445 C 390.69709 411.54723 388.86711 415.2687 389.69727 417.54297 C 390.19172 418.89756 403.84596 433.96781 425.61914 457.19141 C 428.22336 459.96914 429.32133 460.45365 432.41602 460.19141 C 433.05049 460.13765 433.65862 460.0107 434.23828 459.83203 C 435.70525 458.81173 437.14568 457.75731 438.55859 456.66797 C 439.46557 455.28628 439.83954 453.64862 439.43164 452.02344 C 439.03917 450.45974 431.29613 442.57319 419.14648 431.35938 C 400.03785 413.72259 396.43415 410.56076 394.01367 410.62305 z M 441.32812 418.37891 C 437.93502 418.37891 434.80469 421.71389 434.80469 425.33008 C 434.80469 427.56881 437.74495 431.33313 450.90234 445.56641 C 454.42565 441.87374 457.68958 437.92993 460.66992 433.76953 C 445.82719 419.98505 443.73856 418.37891 441.32812 418.37891 z M 216.88281 419.63281 C 215.67076 419.56065 214.19745 419.79048 213.17188 420.25781 C 211.10049 421.20159 210.7378 421.97813 210.99609 424.91016 C 211.27445 428.06994 213.39766 430.3648 231.80469 447.38281 C 243.07969 457.80682 253.07637 466.34534 254.01953 466.35742 C 254.96268 466.3695 256.24759 465.42259 256.87305 464.25391 C 258.28669 461.61257 259.04012 462.58925 237.30469 438.9668 C 227.95468 428.80503 219.26048 420.18189 217.98242 419.80664 C 217.6629 419.7128 217.28683 419.65687 216.88281 419.63281 z M 263.22656 430.50586 C 261.06583 430.40176 258.80469 432.13362 258.80469 434.01562 C 258.80469 434.78062 267.91719 444.59371 279.05469 455.82422 C 290.19219 467.05462 300.00298 476.27321 300.85547 476.31055 C 301.70797 476.34767 302.94548 475.83969 303.60547 475.17969 C 306.30889 472.4763 304.74493 469.81342 295.55469 461.47266 C 290.46718 456.85548 281.65056 448.08339 275.96094 441.97852 C 270.27132 435.87375 264.7344 430.73251 263.65625 430.55273 C 263.51378 430.52899 263.37061 430.5128 263.22656 430.50586 z M 84.568359 434.48828 C 83.66039 434.55634 82.689781 435.016 81.046875 435.91211 C 77.121714 438.05312 75.231763 441.95816 76.21875 445.89062 C 76.571847 447.2975 84.28226 455.25812 94.566406 464.83203 L 96.171875 466.32617 C 105.7824 471.49851 116.26786 475.26862 127.35547 477.37891 C 120.57655 468.50078 91.154581 437.05866 87.716797 435.41211 C 86.321315 434.74376 85.476328 434.42022 84.568359 434.48828 z M 309.48242 440.56836 C 308.00512 440.77877 307.21747 441.68167 307.0332 443.37891 C 306.81608 445.37902 309.47917 448.77886 320.34375 460.37891 C 327.81313 468.35398 335.13533 476.3414 336.61523 478.12891 C 337.00557 478.60037 337.33961 478.98531 337.66016 479.33008 L 352.74805 479.33008 C 351.86707 477.99043 342.56663 468.93879 331.73047 458.88477 C 316.5786 444.82667 311.12485 440.33445 309.48242 440.56836 z M 131.25781 445.62695 C 128.11337 445.84108 125.33001 448.7811 124.99219 452.76758 C 124.65412 456.75682 122.91272 454.80994 146.78125 477.10547 L 149.16211 479.33008 L 166.05469 479.33008 L 152.03711 464.12891 C 143.28886 454.64142 134.93264 446.45455 133.4668 445.93555 C 132.7282 445.674 131.98345 445.57754 131.25781 445.62695 z M 357.12695 448.4082 C 354.42339 448.37207 351.80469 450.87356 351.80469 453.49414 C 351.80469 454.6346 356.9036 460.93645 363.88477 468.42383 L 374.0293 479.30273 C 379.80728 479.18756 385.47437 478.63124 390.99414 477.66016 L 387.13867 474.05469 C 365.6682 453.97945 359.18028 448.43566 357.12695 448.4082 z M 403.33984 456.27148 C 401.8542 456.24137 400.55068 456.77747 399.44336 457.88477 C 395.32298 462.00518 396.32276 464.89257 405.19141 474.16016 C 410.26298 472.54375 415.171 470.57028 419.88672 468.26562 C 417.04902 465.6242 413.82235 462.6205 412.21875 461.12891 C 408.79674 457.94591 405.81591 456.32167 403.33984 456.27148 z M 178.15234 456.65625 C 177.01576 456.68461 175.96829 457.2173 174.89258 458.29297 C 171.21128 461.97428 172.20406 464.17269 181.55469 473.03125 L 181.55469 473.0293 L 188.20508 479.33008 L 202.27148 479.33008 L 199.76367 476.69531 C 197.31165 474.11954 194.85469 471.48428 194.30469 470.83789 C 188.84885 464.42618 181.21356 457.26955 179.32227 456.79492 C 178.91945 456.69381 178.53121 456.6468 178.15234 456.65625 z M 224.94727 467.63867 C 224.36889 467.66268 223.85831 467.92098 223.33008 468.35938 C 220.83669 470.42867 221.57447 473.55782 225.50781 477.58594 C 226.20712 478.30208 226.7819 478.85728 227.31836 479.33008 L 238.18164 479.33008 L 234.22852 475.12891 C 229.02076 469.59475 226.68238 467.56663 224.94727 467.63867 z M 272.50391 477.79297 C 271.99287 477.83459 271.47602 478.02101 270.87305 478.34375 C 270.34429 478.62671 269.87045 478.98005 269.50391 479.33008 L 276.08984 479.33008 C 275.85907 479.16452 275.62721 478.99662 275.37305 478.83008 C 274.1902 478.05504 273.35563 477.7236 272.50391 477.79297 z "
   style="fill:#000000;stroke-width:1"
   clip-path="none"
   id="path1319" /></svg>
