<?xml version="1.0" encoding="UTF-8" standalone="no"?>
<svg
   xmlns:dc="http://purl.org/dc/elements/1.1/"
   xmlns:cc="http://creativecommons.org/ns#"
   xmlns:rdf="http://www.w3.org/1999/02/22-rdf-syntax-ns#"
   xmlns:svg="http://www.w3.org/2000/svg"
   xmlns="http://www.w3.org/2000/svg"
   xmlns:sodipodi="http://sodipodi.sourceforge.net/DTD/sodipodi-0.dtd"
   xmlns:inkscape="http://www.inkscape.org/namespaces/inkscape"
   inkscape:version="1.1-dev (9b51cfe, 2020-02-01)"
   sodipodi:docname="portrait_mobile_error.svg"
   class=""
   height="512px"
   width="512px"
   xml:space="preserve"
   style="enable-background:new 0 0 27.442 27.442;"
   viewBox="0 0 27.442 27.442"
   y="0px"
   x="0px"
   id="Capa_1"
   version="1.1"><metadata
   id="metadata1188"><rdf:RDF><cc:Work
       rdf:about=""><dc:format>image/svg+xml</dc:format><dc:type
         rdf:resource="http://purl.org/dc/dcmitype/StillImage" /><dc:title></dc:title></cc:Work></rdf:RDF></metadata><defs
   id="defs1186" /><sodipodi:namedview
   inkscape:current-layer="Capa_1"
   inkscape:window-maximized="1"
   inkscape:window-y="30"
   inkscape:window-x="0"
   inkscape:cy="246.69739"
   inkscape:cx="277.34675"
   inkscape:zoom="0.78808594"
   showgrid="false"
   id="namedview1184"
   inkscape:window-height="1015"
   inkscape:window-width="1920"
   inkscape:pageshadow="2"
   inkscape:pageopacity="0"
   guidetolerance="10"
   gridtolerance="10"
   objecttolerance="10"
   borderopacity="1"
   bordercolor="#666666"
   pagecolor="#ffffff" /><g
   style="fill:#ff0000;fill-opacity:1"
   id="g1181"><g
     style="fill:#ff0000;fill-opacity:1"
     id="g1179">
	<path
   style="fill:#ff0000;fill-opacity:1"
   id="path1147"
   fill="#FFFFFF"
   data-old_color="#000000"
   class="active-path"
   data-original="#000000"
   d="M19.494,0H7.948C6.843,0,5.951,0.896,5.951,1.999v23.446c0,1.102,0.892,1.997,1.997,1.997h11.546   c1.103,0,1.997-0.895,1.997-1.997V1.999C21.491,0.896,20.597,0,19.494,0z M10.872,1.214h5.7c0.144,0,0.261,0.215,0.261,0.481   s-0.117,0.482-0.261,0.482h-5.7c-0.145,0-0.26-0.216-0.26-0.482C10.612,1.429,10.727,1.214,10.872,1.214z M13.722,25.469   c-0.703,0-1.275-0.572-1.275-1.276s0.572-1.274,1.275-1.274c0.701,0,1.273,0.57,1.273,1.274S14.423,25.469,13.722,25.469z    M19.995,21.1H7.448V3.373h12.547V21.1z" />
	<g
   style="fill:#ff0000;fill-opacity:1"
   id="g1149">
	</g>
	<g
   style="fill:#ff0000;fill-opacity:1"
   id="g1151">
	</g>
	<g
   style="fill:#ff0000;fill-opacity:1"
   id="g1153">
	</g>
	<g
   style="fill:#ff0000;fill-opacity:1"
   id="g1155">
	</g>
	<g
   style="fill:#ff0000;fill-opacity:1"
   id="g1157">
	</g>
	<g
   style="fill:#ff0000;fill-opacity:1"
   id="g1159">
	</g>
	<g
   style="fill:#ff0000;fill-opacity:1"
   id="g1161">
	</g>
	<g
   style="fill:#ff0000;fill-opacity:1"
   id="g1163">
	</g>
	<g
   style="fill:#ff0000;fill-opacity:1"
   id="g1165">
	</g>
	<g
   style="fill:#ff0000;fill-opacity:1"
   id="g1167">
	</g>
	<g
   style="fill:#ff0000;fill-opacity:1"
   id="g1169">
	</g>
	<g
   style="fill:#ff0000;fill-opacity:1"
   id="g1171">
	</g>
	<g
   style="fill:#ff0000;fill-opacity:1"
   id="g1173">
	</g>
	<g
   style="fill:#ff0000;fill-opacity:1"
   id="g1175">
	</g>
	<g
   style="fill:#ff0000;fill-opacity:1"
   id="g1177">
	</g>
</g></g> <rect
   transform="rotate(45)"
   style="fill:#ff0000;fill-opacity:1;stroke-width:0.201068;stroke-linecap:round;stop-color:#000000"
   id="rect1190-4"
   width="7.9959869"
   height="2.3392875"
   x="13.837892"
   y="-2.978549"
   ry="0.82851714" /><rect
   transform="rotate(135)"
   ry="0.82851714"
   y="-19.005527"
   x="-5.8068986"
   height="2.3392875"
   width="7.9959865"
   id="rect1190-4-8"
   style="fill:#ff0000;fill-opacity:1;stroke-width:0.201068;stroke-linecap:round;stop-color:#000000" /></svg>
