<?xml version="1.0" encoding="UTF-8" standalone="no"?>
<svg
   xmlns:dc="http://purl.org/dc/elements/1.1/"
   xmlns:cc="http://creativecommons.org/ns#"
   xmlns:rdf="http://www.w3.org/1999/02/22-rdf-syntax-ns#"
   xmlns:svg="http://www.w3.org/2000/svg"
   xmlns="http://www.w3.org/2000/svg"
   xmlns:sodipodi="http://sodipodi.sourceforge.net/DTD/sodipodi-0.dtd"
   xmlns:inkscape="http://www.inkscape.org/namespaces/inkscape"
   inkscape:version="1.0 (4035a4fb49, 2020-05-01)"
   sodipodi:docname="portrait_mobile_white_usb.svg"
   version="1.1"
   id="Capa_1"
   x="0px"
   y="0px"
   viewBox="0 0 27.442 27.442"
   style="enable-background:new 0 0 27.442 27.442;"
   xml:space="preserve"
   width="512px"
   height="512px"
   class=""><sodipodi:namedview
   inkscape:current-layer="Capa_1"
   inkscape:window-maximized="1"
   inkscape:window-y="30"
   inkscape:window-x="0"
   inkscape:cy="302.55999"
   inkscape:cx="45.004575"
   inkscape:zoom="0.39892578"
   inkscape:pagecheckerboard="true"
   showgrid="false"
   id="namedview863"
   inkscape:window-height="1020"
   inkscape:window-width="1920"
   inkscape:pageshadow="2"
   inkscape:pageopacity="0"
   guidetolerance="10"
   gridtolerance="10"
   objecttolerance="10"
   borderopacity="1"
   bordercolor="#666666"
   pagecolor="#ffffff" /><metadata
   id="metadata1110"><rdf:RDF><cc:Work
       rdf:about=""><dc:format>image/svg+xml</dc:format><dc:type
         rdf:resource="http://purl.org/dc/dcmitype/StillImage" /><dc:title></dc:title></cc:Work></rdf:RDF></metadata><defs
   id="defs1108" /><g
   id="g1103"><g
     id="g1101">
	<path
   d="M19.494,0H7.948C6.843,0,5.951,0.896,5.951,1.999v23.446c0,1.102,0.892,1.997,1.997,1.997h11.546   c1.103,0,1.997-0.895,1.997-1.997V1.999C21.491,0.896,20.597,0,19.494,0z M10.872,1.214h5.7c0.144,0,0.261,0.215,0.261,0.481   s-0.117,0.482-0.261,0.482h-5.7c-0.145,0-0.26-0.216-0.26-0.482C10.612,1.429,10.727,1.214,10.872,1.214z M13.722,25.469   c-0.703,0-1.275-0.572-1.275-1.276s0.572-1.274,1.275-1.274c0.701,0,1.273,0.57,1.273,1.274S14.423,25.469,13.722,25.469z    M19.995,21.1H7.448V3.373h12.547V21.1z"
   data-original="#000000"
   class="active-path"
   data-old_color="#000000"
   fill="#FFFFFF"
   id="path1069" />
	<g
   id="g1071">
	</g>
	<g
   id="g1073">
	</g>
	<g
   id="g1075">
	</g>
	<g
   id="g1077">
	</g>
	<g
   id="g1079">
	</g>
	<g
   id="g1081">
	</g>
	<g
   id="g1083">
	</g>
	<g
   id="g1085">
	</g>
	<g
   id="g1087">
	</g>
	<g
   id="g1089">
	</g>
	<g
   id="g1091">
	</g>
	<g
   id="g1093">
	</g>
	<g
   id="g1095">
	</g>
	<g
   id="g1097">
	</g>
	<g
   id="g1099">
	</g>
</g></g> <path
   style="fill:#ffffff;stroke-width:0.011452;fill-opacity:1"
   d="m 13.613069,17.333553 c -0.397482,-0.06244 -0.745516,-0.308758 -0.937868,-0.663758 -0.05209,-0.09613 -0.105123,-0.248717 -0.127563,-0.366997 -0.02271,-0.11973 -0.0229,-0.347741 -3.84e-4,-0.466438 0.08383,-0.441949 0.395591,-0.810502 0.815381,-0.963937 l 0.08265,-0.03021 -1.050806,-0.791726 c -0.577944,-0.435448 -1.076754,-0.817266 -1.108467,-0.848484 -0.108235,-0.106548 -0.184316,-0.247595 -0.217196,-0.402687 -0.01059,-0.05028 -0.01591,-0.155959 -0.01604,-0.322928 l -1.99e-4,-0.248193 -0.04294,-0.01391 c -0.130799,-0.04238 -0.283986,-0.144759 -0.404381,-0.270267 -0.09359,-0.09756 -0.138071,-0.162396 -0.195507,-0.284958 -0.07685,-0.164003 -0.09394,-0.247127 -0.09406,-0.457588 -1.03e-4,-0.166986 0.0026,-0.192292 0.03108,-0.285398 0.116277,-0.380881 0.404606,-0.658555 0.782534,-0.753604 0.08224,-0.02069 0.131369,-0.02518 0.266846,-0.02447 0.144424,7.65e-4 0.178942,0.0047 0.264984,0.03073 0.140874,0.04251 0.21313,0.07688 0.330311,0.157142 0.533887,0.365667 0.62639,1.125774 0.194547,1.598614 -0.110407,0.12088 -0.288846,0.243879 -0.414252,0.285532 l -0.05494,0.01825 v 0.239145 0.239146 l 0.876753,0.658916 c 0.482213,0.362402 0.879036,0.658916 0.881829,0.658916 0.0027,0 0.0038,-1.078349 0.0022,-2.396331 l -0.0029,-2.3963287 -0.360738,-0.00601 C 12.775705,9.2200613 12.749275,9.2181113 12.690218,9.1943003 12.563636,9.1432683 12.452872,9.0326156 12.400974,8.905348 12.379424,8.8525 12.375324,8.821165 12.375554,8.7106641 c 2.39e-4,-0.1173444 0.0035,-0.138563 0.02981,-0.1946839 0.01625,-0.034643 0.233955,-0.3928036 0.483781,-0.7959139 0.374734,-0.6046533 0.465784,-0.7439515 0.520236,-0.7959139 0.117533,-0.1121596 0.271313,-0.1684787 0.427361,-0.1565156 0.157728,0.012095 0.308596,0.088768 0.402649,0.2046415 0.05058,0.062314 0.894958,1.4590151 0.933248,1.5437019 0.04191,0.092698 0.04866,0.2444557 0.01562,0.3508992 -0.04824,0.1553247 -0.173632,0.283894 -0.325517,0.3337541 -0.07234,0.023747 -0.09779,0.025371 -0.3977,0.025371 h -0.320414 v 2.0962845 c 0,1.748081 0.0025,2.094764 0.01533,2.087126 0.0084,-0.0049 0.363975,-0.251367 0.790094,-0.547401 l 0.774762,-0.538244 9.1e-5,-0.317794 9.8e-5,-0.317792 h -0.136861 c -0.07527,0 -0.164169,-0.0058 -0.197547,-0.01269 -0.2038,-0.0425 -0.382924,-0.21147 -0.434786,-0.410138 -0.01719,-0.06588 -0.01975,-0.143143 -0.02033,-0.61407 -7.27e-4,-0.592472 10e-4,-0.610633 0.0697,-0.7395463 0.04297,-0.08063 0.155442,-0.1911515 0.23613,-0.2320394 0.124986,-0.06333 0.138033,-0.064363 0.815809,-0.064363 0.517101,0 0.636375,0.00301 0.690633,0.017078 0.18311,0.047691 0.330513,0.1831891 0.399782,0.3674844 0.02484,0.066064 0.02558,0.081899 0.02929,0.6205593 0.0033,0.474758 0.0012,0.562842 -0.01429,0.624134 -0.04881,0.192514 -0.174022,0.334681 -0.356884,0.405203 -0.06856,0.02644 -0.100128,0.03101 -0.247509,0.03575 l -0.168917,0.0054 v 0.313995 c 0,0.330908 -0.0097,0.421442 -0.05849,0.545183 -0.03323,0.08431 -0.114002,0.203462 -0.185283,0.273307 -0.03466,0.03397 -0.495752,0.362509 -1.031932,0.73528 l -0.96926,0.673866 0.003,0.30361 0.003,0.303611 0.08589,0.03141 c 0.114171,0.04174 0.194696,0.08333 0.294127,0.151825 0.09739,0.0671 0.253786,0.225914 0.323341,0.328337 0.07175,0.105673 0.146478,0.270328 0.181075,0.399027 0.02732,0.101618 0.03011,0.131549 0.03034,0.323833 2.56e-4,0.228978 -0.01059,0.292291 -0.0794,0.464312 -0.158025,0.395001 -0.506558,0.688647 -0.9254,0.77967 -0.09826,0.02136 -0.353142,0.03007 -0.447244,0.01527 z"
   id="path2394" /></svg>
