<?xml version="1.0" encoding="UTF-8" standalone="no"?>
<svg
   xmlns:dc="http://purl.org/dc/elements/1.1/"
   xmlns:cc="http://creativecommons.org/ns#"
   xmlns:rdf="http://www.w3.org/1999/02/22-rdf-syntax-ns#"
   xmlns:svg="http://www.w3.org/2000/svg"
   xmlns="http://www.w3.org/2000/svg"
   xmlns:sodipodi="http://sodipodi.sourceforge.net/DTD/sodipodi-0.dtd"
   xmlns:inkscape="http://www.inkscape.org/namespaces/inkscape"
   version="1.1"
   id="Capa_1"
   x="0px"
   y="0px"
   viewBox="0 0 27.442 27.442"
   style="enable-background:new 0 0 27.442 27.442;"
   xml:space="preserve"
   width="512px"
   height="512px"
   class=""
   sodipodi:docname="portrait_mobile_disconnect.svg"
   inkscape:version="1.1-dev (9b51cfe, 2020-02-01)"><metadata
   id="metadata1188"><rdf:RDF><cc:Work
       rdf:about=""><dc:format>image/svg+xml</dc:format><dc:type
         rdf:resource="http://purl.org/dc/dcmitype/StillImage" /><dc:title></dc:title></cc:Work></rdf:RDF></metadata><defs
   id="defs1186"><linearGradient
     y1="45.470001"
     x2="0"
     y2="-0.59899998"
     id="0"
     gradientUnits="userSpaceOnUse"
     gradientTransform="matrix(1.31117,0,0,1.30239,737.39,159.91)"><stop
       id="stop2"
       stop-color="#ffc515" /><stop
       id="stop4"
       stop-color="#ffd55b"
       offset="1" /></linearGradient></defs><sodipodi:namedview
   pagecolor="#ffffff"
   bordercolor="#666666"
   borderopacity="1"
   objecttolerance="10"
   gridtolerance="10"
   guidetolerance="10"
   inkscape:pageopacity="0"
   inkscape:pageshadow="2"
   inkscape:window-width="1920"
   inkscape:window-height="1015"
   id="namedview1184"
   showgrid="false"
   inkscape:zoom="1.5761718"
   inkscape:cx="311.08457"
   inkscape:cy="296.60444"
   inkscape:window-x="0"
   inkscape:window-y="30"
   inkscape:window-maximized="1"
   inkscape:current-layer="Capa_1" /><g
   id="g1181"
   style="fill:#aaaaaa;fill-opacity:1"><g
     id="g1179"
     style="fill:#aaaaaa;fill-opacity:1">
	<path
   d="M19.494,0H7.948C6.843,0,5.951,0.896,5.951,1.999v23.446c0,1.102,0.892,1.997,1.997,1.997h11.546   c1.103,0,1.997-0.895,1.997-1.997V1.999C21.491,0.896,20.597,0,19.494,0z M10.872,1.214h5.7c0.144,0,0.261,0.215,0.261,0.481   s-0.117,0.482-0.261,0.482h-5.7c-0.145,0-0.26-0.216-0.26-0.482C10.612,1.429,10.727,1.214,10.872,1.214z M13.722,25.469   c-0.703,0-1.275-0.572-1.275-1.276s0.572-1.274,1.275-1.274c0.701,0,1.273,0.57,1.273,1.274S14.423,25.469,13.722,25.469z    M19.995,21.1H7.448V3.373h12.547V21.1z"
   data-original="#000000"
   class="active-path"
   data-old_color="#000000"
   fill="#FFFFFF"
   id="path1147"
   style="fill:#aaaaaa;fill-opacity:1" />
	<g
   id="g1149"
   style="fill:#aaaaaa;fill-opacity:1">
	</g>
	<g
   id="g1151"
   style="fill:#aaaaaa;fill-opacity:1">
	</g>
	<g
   id="g1153"
   style="fill:#aaaaaa;fill-opacity:1">
	</g>
	<g
   id="g1155"
   style="fill:#aaaaaa;fill-opacity:1">
	</g>
	<g
   id="g1157"
   style="fill:#aaaaaa;fill-opacity:1">
	</g>
	<g
   id="g1159"
   style="fill:#aaaaaa;fill-opacity:1">
	</g>
	<g
   id="g1161"
   style="fill:#aaaaaa;fill-opacity:1">
	</g>
	<g
   id="g1163"
   style="fill:#aaaaaa;fill-opacity:1">
	</g>
	<g
   id="g1165"
   style="fill:#aaaaaa;fill-opacity:1">
	</g>
	<g
   id="g1167"
   style="fill:#aaaaaa;fill-opacity:1">
	</g>
	<g
   id="g1169"
   style="fill:#aaaaaa;fill-opacity:1">
	</g>
	<g
   id="g1171"
   style="fill:#aaaaaa;fill-opacity:1">
	</g>
	<g
   id="g1173"
   style="fill:#aaaaaa;fill-opacity:1">
	</g>
	<g
   id="g1175"
   style="fill:#aaaaaa;fill-opacity:1">
	</g>
	<g
   id="g1177"
   style="fill:#aaaaaa;fill-opacity:1">
	</g>
</g></g> <path
   inkscape:connector-curvature="0"
   id="path1901"
   d="m 15.051846,16.791233 c -0.148832,-0.04003 -0.259497,-0.144495 -0.31451,-0.296908 l -0.02267,-0.0628 v -0.711304 c 0,-0.69718 4e-4,-0.712477 0.02046,-0.770774 0.05713,-0.166075 0.189703,-0.278787 0.361985,-0.30775 0.137603,-0.02313 0.285119,0.02441 0.383209,0.123509 0.0643,0.06497 0.09193,0.110057 0.116668,0.190424 0.01898,0.06169 0.01951,0.08587 0.01684,0.789247 l -0.0027,0.72561 -0.0364,0.07621 c -0.09452,0.197954 -0.314127,0.300658 -0.522857,0.244529 z M 11.158181,16.51462 C 11.054822,16.492176 10.947173,16.45531 10.865868,16.414511 10.723081,16.342859 10.6713,16.296445 10.102651,15.730505 9.7954228,15.424738 9.518242,15.142703 9.4866928,15.103761 9.1790258,14.724 9.152557,14.186025 9.4212117,13.772741 c 0.051288,-0.07891 0.1699615,-0.200925 1.0484363,-1.078039 0.896559,-0.895168 0.998564,-0.99394 1.074503,-1.040452 0.400225,-0.245133 0.91027,-0.227424 1.272313,0.04418 l 0.05055,0.03792 -0.269784,0.269253 -0.269784,0.269253 -0.05846,-0.02004 c -0.04636,-0.01587 -0.07563,-0.01921 -0.14128,-0.01606 -0.159945,0.0077 -0.08128,-0.06115 -1.137189,0.994758 -0.836735,0.836735 -0.940196,0.943501 -0.963093,0.993858 -0.03232,0.07108 -0.043677,0.15102 -0.032135,0.226152 0.019381,0.126202 0.013823,0.11959 0.606453,0.713333 0.514931,0.515844 0.550681,0.54955 0.614922,0.579754 0.06246,0.02937 0.076,0.03203 0.160773,0.03169 0.07303,-3.09e-4 0.104898,-0.0051 0.151028,-0.02307 0.05576,-0.02163 0.101835,-0.06598 0.996782,-0.959381 0.898882,-0.897331 0.939833,-0.939749 0.974378,-1.009283 0.03372,-0.06788 0.03604,-0.07831 0.03573,-0.160773 -3.08e-4,-0.07878 -0.0037,-0.09541 -0.03208,-0.155922 l -0.03174,-0.06773 0.265527,-0.265658 c 0.303095,-0.303246 0.264665,-0.285305 0.349201,-0.163018 0.197655,0.285918 0.255127,0.634268 0.159608,0.967421 -0.03262,0.113776 -0.107107,0.263875 -0.177358,0.357385 -0.0817,0.108746 -1.964047,1.985452 -2.04672,2.040578 -0.09411,0.06274 -0.248202,0.132473 -0.356917,0.161497 -0.135379,0.03614 -0.374893,0.04288 -0.506676,0.01428 z m 5.534474,-1.053716 c -0.03215,-0.0047 -0.08697,-0.02223 -0.121799,-0.03906 -0.0567,-0.02739 -0.114674,-0.08168 -0.554098,-0.518945 -0.29271,-0.29127 -0.505567,-0.510849 -0.527443,-0.544097 -0.0514,-0.07812 -0.07171,-0.159936 -0.06655,-0.268024 0.0036,-0.07433 0.0091,-0.0971 0.0391,-0.160255 0.111239,-0.234251 0.382147,-0.326692 0.616924,-0.210518 0.05002,0.02475 0.131162,0.101663 0.5616,0.532252 0.461756,0.461927 0.505619,0.508619 0.533312,0.567715 0.15487,0.330483 -0.117624,0.693543 -0.481053,0.640929 z m 0.04385,-1.603997 c -0.0134,-0.0024 -0.05633,-0.01919 -0.09541,-0.03721 -0.229801,-0.105881 -0.322733,-0.394284 -0.199822,-0.620113 0.05528,-0.101564 0.139598,-0.171896 0.256784,-0.214194 l 0.0628,-0.02267 h 0.706426 c 0.704701,0 0.706594,4.8e-5 0.77589,0.02185 0.317404,0.09982 0.41913,0.511062 0.183989,0.743806 -0.06433,0.06367 -0.109686,0.09163 -0.18871,0.116313 -0.05955,0.0186 -0.089,0.01929 -0.76976,0.01801 -0.389309,-7.27e-4 -0.718797,-0.0033 -0.732194,-0.0058 z m -1.54161,-1.332465 c -0.189523,-0.03102 -0.410381,-0.13099 -0.541522,-0.245113 l -0.03206,-0.0279 0.266886,-0.266425 0.266886,-0.266424 0.04807,0.02435 c 0.109672,0.05558 0.23698,0.05573 0.348304,4.36e-4 0.03966,-0.01969 0.24124,-0.216033 0.982432,-0.956853 0.890056,-0.8896074 0.934,-0.9351749 0.964636,-1.000274 0.02926,-0.062175 0.03209,-0.076383 0.03209,-0.1607728 0,-0.084391 -0.0029,-0.098599 -0.03209,-0.1607727 C 17.468317,9.4004805 17.434367,9.3644697 16.91877,8.849709 16.323771,8.2556668 16.331426,8.2621636 16.201799,8.2412881 c -0.07826,-0.012541 -0.162743,0.00199 -0.235432,0.0406 -0.04308,0.022901 -0.242726,0.2177662 -0.989939,0.966265 -1.049613,1.0514189 -0.977437,0.9688359 -0.985495,1.1275819 -0.0034,0.06696 -2.53e-4,0.094 0.01637,0.14118 l 0.02058,0.05836 -0.268624,0.268058 -0.268624,0.268059 -0.02909,-0.0341 c -0.07586,-0.08897 -0.15614,-0.256919 -0.194508,-0.406937 -0.08393,-0.328198 -0.0067,-0.6994545 0.201064,-0.9669365 0.0229,-0.02947 0.477165,-0.4881139 1.009482,-1.0191985 0.99159,-0.9892928 1.010259,-1.0067211 1.157508,-1.0806585 0.362046,-0.1817936 0.795681,-0.1557651 1.13707,0.06826 0.07194,0.047212 0.180497,0.1505337 0.659274,0.6275109 0.320371,0.3191671 0.59882,0.6048256 0.63135,0.6476968 0.07526,0.099183 0.157492,0.2678265 0.19066,0.3910036 0.02426,0.090092 0.02624,0.1117667 0.02624,0.2874426 0,0.1747539 -0.0021,0.1976502 -0.02571,0.2852723 -0.02948,0.1092583 -0.09328,0.2497893 -0.159444,0.3511923 -0.03484,0.05341 -0.270629,0.295455 -0.996598,1.023095 -0.523023,0.524223 -0.978576,0.975305 -1.01234,1.002404 -0.135722,0.108931 -0.293432,0.185614 -0.459281,0.223327 -0.112137,0.02549 -0.319138,0.03206 -0.431439,0.01368 z M 9.4005214,11.096243 C 9.2595697,11.077418 9.1212187,10.978035 9.0593444,10.851141 8.947136,10.621034 9.0390089,10.356374 9.2708632,10.24179 l 0.073974,-0.03655 h 0.7507758 0.750774 l 0.07621,0.0364 c 0.272748,0.130235 0.344389,0.476806 0.146381,0.708133 -0.04302,0.05026 -0.121699,0.101421 -0.198761,0.129238 l -0.0628,0.02267 -0.672322,0.0014 c -0.3697768,8e-4 -0.7003315,-0.0023 -0.7345654,-0.0068 z M 11.584616,10.380216 C 11.464128,10.347768 11.4584,10.342809 10.927873,9.8121099 10.4684,9.3524842 10.422149,9.3032829 10.394932,9.2451907 10.241213,8.9170931 10.509563,8.5526151 10.86752,8.6033084 c 0.145305,0.020578 0.132301,0.00998 0.679117,0.5536973 0.296546,0.29487 0.510368,0.5152227 0.532314,0.5485774 0.05241,0.07966 0.07219,0.1609338 0.06591,0.2709734 -0.0044,0.076882 -0.0098,0.098229 -0.04118,0.1616945 -0.09713,0.196526 -0.31341,0.297348 -0.519059,0.241965 z m 0.713591,-0.9637171 c -0.06739,-0.017215 -0.0972,-0.030168 -0.144761,-0.062888 -0.09136,-0.062859 -0.151538,-0.1436608 -0.182362,-0.244859 -0.01872,-0.061448 -0.01929,-0.088538 -0.01664,-0.789247 l 0.0027,-0.72561 0.0364,-0.076212 c 0.130235,-0.2727475 0.476806,-0.3443891 0.708133,-0.1463826 0.05026,0.043022 0.101421,0.1216993 0.129238,0.1987632 l 0.02267,0.062802 V 8.344163 9.0554598 l -0.02267,0.062802 c -0.04479,0.1240933 -0.119704,0.2098697 -0.230667,0.2641427 -0.09662,0.047255 -0.203346,0.059296 -0.302058,0.034087 z"
   style="fill:#cecece;fill-opacity:1;stroke-width:0.0097438" /></svg>
