<?xml version="1.0" encoding="UTF-8" standalone="no"?>
<svg
   xmlns:dc="http://purl.org/dc/elements/1.1/"
   xmlns:cc="http://creativecommons.org/ns#"
   xmlns:rdf="http://www.w3.org/1999/02/22-rdf-syntax-ns#"
   xmlns:svg="http://www.w3.org/2000/svg"
   xmlns="http://www.w3.org/2000/svg"
   xmlns:sodipodi="http://sodipodi.sourceforge.net/DTD/sodipodi-0.dtd"
   xmlns:inkscape="http://www.inkscape.org/namespaces/inkscape"
   inkscape:version="1.1-dev (9b51cfe, 2020-02-01)"
   sodipodi:docname="portrait_mobile_warning.svg"
   class=""
   height="512px"
   width="512px"
   xml:space="preserve"
   style="enable-background:new 0 0 27.442 27.442;"
   viewBox="0 0 27.442 27.442"
   y="0px"
   x="0px"
   id="Capa_1"
   version="1.1"><metadata
   id="metadata1188"><rdf:RDF><cc:Work
       rdf:about=""><dc:format>image/svg+xml</dc:format><dc:type
         rdf:resource="http://purl.org/dc/dcmitype/StillImage" /><dc:title></dc:title></cc:Work></rdf:RDF></metadata><defs
   id="defs1186"><linearGradient
     gradientTransform="matrix(1.31117,0,0,1.30239,737.39,159.91)"
     gradientUnits="userSpaceOnUse"
     id="0"
     y2="-0.59899998"
     x2="0"
     y1="45.470001"><stop
       stop-color="#ffc515"
       id="stop2" /><stop
       offset="1"
       stop-color="#ffd55b"
       id="stop4" /></linearGradient></defs><sodipodi:namedview
   inkscape:current-layer="Capa_1"
   inkscape:window-maximized="1"
   inkscape:window-y="30"
   inkscape:window-x="0"
   inkscape:cy="229.28578"
   inkscape:cx="240.61778"
   inkscape:zoom="2.2290436"
   showgrid="false"
   id="namedview1184"
   inkscape:window-height="1015"
   inkscape:window-width="1920"
   inkscape:pageshadow="2"
   inkscape:pageopacity="0"
   guidetolerance="10"
   gridtolerance="10"
   objecttolerance="10"
   borderopacity="1"
   bordercolor="#666666"
   pagecolor="#ffffff" /><g
   style="fill:#ffdc00;fill-opacity:1"
   id="g1181"><g
     style="fill:#ffdc00;fill-opacity:1"
     id="g1179">
	<path
   style="fill:#ffdc00;fill-opacity:1"
   id="path1147"
   fill="#FFFFFF"
   data-old_color="#000000"
   class="active-path"
   data-original="#000000"
   d="M19.494,0H7.948C6.843,0,5.951,0.896,5.951,1.999v23.446c0,1.102,0.892,1.997,1.997,1.997h11.546   c1.103,0,1.997-0.895,1.997-1.997V1.999C21.491,0.896,20.597,0,19.494,0z M10.872,1.214h5.7c0.144,0,0.261,0.215,0.261,0.481   s-0.117,0.482-0.261,0.482h-5.7c-0.145,0-0.26-0.216-0.26-0.482C10.612,1.429,10.727,1.214,10.872,1.214z M13.722,25.469   c-0.703,0-1.275-0.572-1.275-1.276s0.572-1.274,1.275-1.274c0.701,0,1.273,0.57,1.273,1.274S14.423,25.469,13.722,25.469z    M19.995,21.1H7.448V3.373h12.547V21.1z" />
	<g
   style="fill:#ffdc00;fill-opacity:1"
   id="g1149">
	</g>
	<g
   style="fill:#ffdc00;fill-opacity:1"
   id="g1151">
	</g>
	<g
   style="fill:#ffdc00;fill-opacity:1"
   id="g1153">
	</g>
	<g
   style="fill:#ffdc00;fill-opacity:1"
   id="g1155">
	</g>
	<g
   style="fill:#ffdc00;fill-opacity:1"
   id="g1157">
	</g>
	<g
   style="fill:#ffdc00;fill-opacity:1"
   id="g1159">
	</g>
	<g
   style="fill:#ffdc00;fill-opacity:1"
   id="g1161">
	</g>
	<g
   style="fill:#ffdc00;fill-opacity:1"
   id="g1163">
	</g>
	<g
   style="fill:#ffdc00;fill-opacity:1"
   id="g1165">
	</g>
	<g
   style="fill:#ffdc00;fill-opacity:1"
   id="g1167">
	</g>
	<g
   style="fill:#ffdc00;fill-opacity:1"
   id="g1169">
	</g>
	<g
   style="fill:#ffdc00;fill-opacity:1"
   id="g1171">
	</g>
	<g
   style="fill:#ffdc00;fill-opacity:1"
   id="g1173">
	</g>
	<g
   style="fill:#ffdc00;fill-opacity:1"
   id="g1175">
	</g>
	<g
   style="fill:#ffdc00;fill-opacity:1"
   id="g1177">
	</g>
</g></g> <g
   transform="matrix(0.12587355,0,0,0.12587355,-82.892128,-12.601015)"
   id="g13"><path
     style="fill:#ffed00;fill-opacity:1"
     inkscape:connector-curvature="0"
     d="m 797.94,212.01 -25.607,-48 c -0.736,-1.333 -2.068,-2.074 -3.551,-2.074 -1.483,0 -2.822,0.889 -3.569,2.222 l -25.417,48 c -0.598,1.185 -0.605,2.815 0.132,4 0.737,1.185 1.921,1.778 3.404,1.778 h 51.02 c 1.483,0 2.821,-0.741 3.42,-1.926 0.747,-1.185 0.753,-2.667 0.165,-4"
     fill="url(#0)"
     id="path9" /><path
     inkscape:connector-curvature="0"
     d="m -26.309,18.07 c -1.18,0 -2.135,0.968 -2.135,2.129 v 12.82 c 0,1.176 0.948,2.129 2.135,2.129 1.183,0 2.135,-0.968 2.135,-2.129 v -12.82 c 0,-1.176 -0.946,-2.129 -2.135,-2.129 z m 0,21.348 c -1.18,0 -2.135,0.954 -2.135,2.135 0,1.18 0.954,2.135 2.135,2.135 1.181,0 2.135,-0.954 2.135,-2.135 0,-1.18 -0.952,-2.135 -2.135,-2.135 z"
     transform="matrix(1.05196,0,0,1.05196,796.53,161.87)"
     fill="#000000"
     stroke="#40330d"
     fill-opacity="0.75"
     id="path11" /></g></svg>
