<?xml version="1.0"?>
<svg xmlns="http://www.w3.org/2000/svg" xmlns:xlink="http://www.w3.org/1999/xlink" version="1.1" id="Capa_1" x="0px" y="0px" width="512px" height="512px" viewBox="0 0 466.227 466.227" style="enable-background:new 0 0 466.227 466.227;" xml:space="preserve" class=""><g><g>
	<path d="M463.36,2.852c-1.906-1.805-4.188-2.712-6.854-2.712c-49.677,0-90.694,6.755-123.051,20.271   c-32.353,13.518-66.424,38.072-102.208,73.662c-15.225,15.418-31.977,33.977-50.248,55.675l-108.205,5.708   c-3.046,0.387-5.52,1.906-7.423,4.57L1.418,269.666c-2.285,3.806-1.807,7.519,1.427,11.136l18.271,18.271   c1.714,1.714,3.901,2.569,6.567,2.569c1.143,0,1.997-0.096,2.568-0.287l78.802-24.273l80.228,80.232l-24.269,78.795   c-0.949,3.43-0.188,6.472,2.285,9.138l18.272,18.274c2.094,1.707,4.285,2.566,6.567,2.566c1.716,0,3.238-0.384,4.569-1.144   l109.639-63.953c2.666-1.902,4.186-4.373,4.568-7.419l5.708-108.209c21.7-18.274,40.262-35.022,55.676-50.251   c33.89-34.074,58.009-68.378,72.375-102.923c14.373-34.547,21.556-75.519,21.556-122.91C466.224,6.804,465.273,4.664,463.36,2.852z    M394.277,110.92c-5.325,5.326-11.8,7.994-19.414,7.994s-14.082-2.665-19.414-7.994c-5.325-5.33-7.994-11.802-7.994-19.417   c0-7.611,2.666-14.084,7.994-19.414c5.328-5.327,11.8-7.993,19.414-7.993s14.086,2.663,19.414,7.993s7.994,11.803,7.994,19.414   C402.271,99.119,399.612,105.586,394.277,110.92z" data-original="#000000" class="active-path" data-old_color="#000000" fill="#000000"/>
</g></g> </svg>
