<?xml version="1.0"?>
<svg xmlns="http://www.w3.org/2000/svg" xmlns:xlink="http://www.w3.org/1999/xlink" version="1.1" id="Capa_1" x="0px" y="0px" width="512px" height="512px" viewBox="0 0 475.082 475.081" style="enable-background:new 0 0 475.082 475.081;" xml:space="preserve" class=""><g><g>
	<g>
		<path d="M200.999,63.952c-4.946,0-9.229,1.812-12.847,5.426l-95.074,95.075H18.276c-4.952,0-9.234,1.812-12.85,5.424    C1.809,173.493,0,177.778,0,182.726v109.63c0,4.949,1.809,9.233,5.426,12.848c3.619,3.617,7.902,5.427,12.85,5.427h74.798    l95.074,95.078c3.617,3.61,7.9,5.424,12.847,5.424c4.952,0,9.234-1.813,12.85-5.424c3.617-3.614,5.426-7.901,5.426-12.847V82.228    c0-4.948-1.809-9.234-5.422-12.85C210.23,65.764,205.951,63.952,200.999,63.952z" data-original="#000000" class="active-path" data-old_color="#000000" fill="#FFFFFF"/>
		<path d="M316.769,277.936c8.093-12.467,12.135-25.93,12.135-40.395s-4.042-27.992-12.135-40.556    c-8.094-12.562-18.791-21.41-32.121-26.551c-1.902-0.949-4.284-1.427-7.139-1.427c-4.944,0-9.232,1.762-12.847,5.282    c-3.61,3.521-5.427,7.852-5.427,12.99c0,3.997,1.143,7.376,3.432,10.137c2.283,2.762,5.041,5.142,8.282,7.139    c3.23,1.998,6.468,4.188,9.708,6.567c3.238,2.38,5.996,5.758,8.278,10.135c2.276,4.38,3.426,9.804,3.426,16.277    c0,6.471-1.143,11.896-3.426,16.276c-2.282,4.381-5.04,7.755-8.278,10.14c-3.24,2.379-6.478,4.569-9.708,6.567    c-3.241,1.992-5.999,4.377-8.282,7.132c-2.282,2.765-3.432,6.143-3.432,10.14c0,5.144,1.816,9.47,5.427,12.99    c3.614,3.521,7.902,5.288,12.847,5.288c2.854,0,5.236-0.479,7.139-1.424C297.978,299.304,308.679,290.403,316.769,277.936z" data-original="#000000" class="active-path" data-old_color="#000000" fill="#FFFFFF"/>
		<path d="M377.728,318.194c16.18-24.646,24.273-51.531,24.273-80.654c0-29.124-8.094-56.005-24.273-80.666    c-16.177-24.645-37.6-42.583-64.241-53.815c-2.471-0.95-4.948-1.427-7.416-1.427c-4.948,0-9.236,1.809-12.854,5.426    c-3.613,3.616-5.424,7.898-5.424,12.847c0,7.424,3.713,13.039,11.139,16.849c10.657,5.518,17.888,9.705,21.693,12.559    c14.089,10.28,25.077,23.173,32.976,38.686c7.898,15.514,11.848,32.026,11.848,49.537c0,17.512-3.949,34.023-11.848,49.536    c-7.898,15.516-18.894,28.407-32.976,38.684c-3.806,2.857-11.036,7.043-21.693,12.563c-7.426,3.809-11.139,9.424-11.139,16.847    c0,4.948,1.811,9.236,5.424,12.847c3.617,3.621,7.991,5.432,13.131,5.432c2.286,0,4.668-0.483,7.139-1.428    C340.128,360.783,361.551,342.844,377.728,318.194z" data-original="#000000" class="active-path" data-old_color="#000000" fill="#FFFFFF"/>
		<path d="M438.824,116.92c-24.171-36.638-56.343-63.622-96.505-80.943c-2.471-0.95-4.948-1.425-7.416-1.425    c-4.948,0-9.236,1.811-12.847,5.424c-3.621,3.615-5.432,7.902-5.432,12.85c0,6.851,3.714,12.469,11.14,16.846    c1.335,0.756,3.467,1.755,6.42,2.996c2.95,1.232,5.089,2.231,6.427,2.993c8.754,4.755,16.56,9.611,23.418,14.56    c23.407,17.318,41.682,38.922,54.816,64.809c13.134,25.885,19.697,53.388,19.697,82.512c0,29.129-6.563,56.626-19.697,82.512    c-13.131,25.889-31.409,47.496-54.816,64.809c-6.858,4.948-14.664,9.801-23.418,14.562c-1.338,0.756-3.477,1.752-6.427,2.99    c-2.953,1.232-5.085,2.231-6.42,2.998c-7.426,4.374-11.14,9.993-11.14,16.844c0,4.949,1.811,9.233,5.432,12.848    c3.61,3.617,7.898,5.427,12.847,5.427c2.468,0,4.945-0.476,7.416-1.431c40.162-17.315,72.334-44.3,96.505-80.94    c24.174-36.638,36.258-76.849,36.258-120.625S463.001,153.554,438.824,116.92z" data-original="#000000" class="active-path" data-old_color="#000000" fill="#FFFFFF"/>
	</g>
</g></g> </svg>
