<?xml version="1.0"?>
<svg xmlns="http://www.w3.org/2000/svg" xmlns:xlink="http://www.w3.org/1999/xlink" version="1.1" id="Capa_1" x="0px" y="0px" width="512px" height="512px" viewBox="0 0 475.084 475.084" style="enable-background:new 0 0 475.084 475.084;" xml:space="preserve" class=""><g><g>
	<g>
		<path d="M464.524,412.846l-97.929-97.925c23.6-34.068,35.406-72.04,35.406-113.917c0-27.218-5.284-53.249-15.852-78.087    c-10.561-24.842-24.838-46.254-42.825-64.241c-17.987-17.987-39.396-32.264-64.233-42.826    C254.246,5.285,228.217,0.003,200.999,0.003c-27.216,0-53.247,5.282-78.085,15.847C98.072,26.412,76.66,40.689,58.673,58.676    c-17.989,17.987-32.264,39.403-42.827,64.241C5.282,147.758,0,173.786,0,201.004c0,27.216,5.282,53.238,15.846,78.083    c10.562,24.838,24.838,46.247,42.827,64.241c17.987,17.986,39.403,32.257,64.241,42.825    c24.841,10.563,50.869,15.844,78.085,15.844c41.879,0,79.852-11.807,113.922-35.405l97.929,97.641    c6.852,7.231,15.406,10.849,25.693,10.849c10.089,0,18.699-3.566,25.838-10.705c7.139-7.138,10.704-15.748,10.704-25.837    S471.567,419.889,464.524,412.846z M291.363,291.358c-25.029,25.033-55.148,37.549-90.364,37.549    c-35.21,0-65.329-12.519-90.36-37.549c-25.031-25.029-37.546-55.144-37.546-90.36c0-35.21,12.518-65.334,37.546-90.36    c25.026-25.032,55.15-37.546,90.36-37.546c35.212,0,65.331,12.519,90.364,37.546c25.033,25.026,37.548,55.15,37.548,90.36    C328.911,236.214,316.392,266.329,291.363,291.358z" data-original="#000000" class="active-path" data-old_color="#000000" fill="#FFFFFF"/>
		<path d="M283.228,182.728h-164.45c-2.474,0-4.615,0.905-6.423,2.712c-1.809,1.809-2.712,3.949-2.712,6.424v18.271    c0,2.475,0.903,4.617,2.712,6.424c1.809,1.809,3.946,2.713,6.423,2.713h164.454c2.478,0,4.612-0.905,6.427-2.713    c1.804-1.807,2.703-3.949,2.703-6.424v-18.271c0-2.475-0.903-4.615-2.707-6.424C287.851,183.633,285.706,182.728,283.228,182.728z    " data-original="#000000" class="active-path" data-old_color="#000000" fill="#FFFFFF"/>
	</g>
</g></g> </svg>
