<?xml version="1.0"?>
<svg xmlns="http://www.w3.org/2000/svg" xmlns:xlink="http://www.w3.org/1999/xlink" version="1.1" id="Capa_1" x="0px" y="0px" width="512px" height="512px" viewBox="0 0 511.63 511.63" style="enable-background:new 0 0 511.63 511.63;" xml:space="preserve"><g transform="matrix(-1.83697e-16, -1, 1, -1.83697e-16, 8.52651e-14, 511.63)"><g>
	<path d="M411.404,288.506c-18.455-45.014-27.685-92.455-27.685-142.325c0-31.405-9.131-56.337-27.398-74.802   c-18.28-18.464-43.406-29.602-75.383-33.407c1.52-3.424,2.279-6.945,2.279-10.562c0-7.614-2.663-14.091-7.991-19.416   C269.898,2.663,263.427,0,255.812,0c-7.61,0-14.083,2.663-19.414,7.994c-5.33,5.329-7.993,11.802-7.993,19.416   c0,3.617,0.76,7.135,2.285,10.562c-31.977,3.809-57.103,14.942-75.375,33.407c-18.271,18.464-27.406,43.396-27.406,74.802   c0,49.87-9.229,97.311-27.694,142.325c-18.464,45.015-45.776,82.847-81.942,113.492c0,9.896,3.617,18.463,10.85,25.693   c7.232,7.231,15.796,10.852,25.697,10.852h127.907c0,20.178,7.135,37.404,21.411,51.675c14.277,14.273,31.504,21.412,51.678,21.412   c20.177,0,37.404-7.139,51.675-21.412c14.273-14.271,21.412-31.497,21.412-51.675H456.81c9.897,0,18.47-3.613,25.694-10.852   c7.234-7.23,10.852-15.797,10.852-25.693C457.196,371.353,429.881,333.521,411.404,288.506z M255.816,488.787   c-13.894,0-25.747-4.896-35.548-14.698c-9.801-9.804-14.703-21.658-14.703-35.553c0-3.046,1.524-4.568,4.568-4.568   c3.046,0,4.57,1.522,4.57,4.568c0,11.231,4.043,20.889,12.132,28.982c8.091,8.094,17.749,12.135,28.98,12.135   c3.046,0,4.575,1.53,4.575,4.569C260.392,487.268,258.862,488.787,255.816,488.787z" data-original="#000000" class="active-path" data-old_color="#000000" fill="#FFFFFF"/>
</g></g> </svg>
