<?xml version="1.0"?>
<svg xmlns="http://www.w3.org/2000/svg" xmlns:xlink="http://www.w3.org/1999/xlink" version="1.1" id="Capa_1" x="0px" y="0px" width="512px" height="512px" viewBox="0 0 511.626 511.627" style="enable-background:new 0 0 511.626 511.627;" xml:space="preserve" class=""><g><g>
	<path d="M506.203,242.966l-73.087-73.089c-3.621-3.617-7.902-5.424-12.847-5.424c-4.949,0-9.233,1.807-12.854,5.424   c-3.613,3.616-5.42,7.898-5.42,12.847v36.547H109.636v-36.547c0-4.949-1.809-9.231-5.426-12.847   c-3.619-3.617-7.902-5.424-12.85-5.424c-4.947,0-9.23,1.807-12.847,5.424L5.424,242.966C1.809,246.58,0,250.865,0,255.813   c0,4.947,1.809,9.232,5.424,12.845l73.089,73.091c3.617,3.613,7.897,5.424,12.847,5.424c4.952,0,9.234-1.811,12.85-5.424   c3.617-3.614,5.426-7.898,5.426-12.847v-36.549h292.359v36.549c0,4.948,1.807,9.232,5.42,12.847   c3.621,3.613,7.905,5.424,12.854,5.424c4.944,0,9.226-1.811,12.847-5.424l73.087-73.091c3.617-3.613,5.424-7.898,5.424-12.845   C511.626,250.865,509.82,246.58,506.203,242.966z" data-original="#000000" class="active-path" data-old_color="#000000" fill="#FFFFFF"/>
</g></g> </svg>
