<?xml version="1.0"?>
<svg xmlns="http://www.w3.org/2000/svg" xmlns:xlink="http://www.w3.org/1999/xlink" version="1.1" id="Capa_1" x="0px" y="0px" width="512px" height="512px" viewBox="0 0 511.626 511.627" style="enable-background:new 0 0 511.626 511.627;" xml:space="preserve"><g><g>
	<path d="M328.906,401.994h-36.553V109.636h36.553c4.948,0,9.236-1.809,12.847-5.426c3.613-3.615,5.421-7.898,5.421-12.845   c0-4.949-1.801-9.231-5.428-12.851l-73.087-73.09C265.044,1.809,260.76,0,255.813,0c-4.948,0-9.229,1.809-12.847,5.424   l-73.088,73.09c-3.618,3.619-5.424,7.902-5.424,12.851c0,4.946,1.807,9.229,5.424,12.845c3.619,3.617,7.901,5.426,12.85,5.426   h36.545v292.358h-36.542c-4.952,0-9.235,1.808-12.85,5.421c-3.617,3.621-5.424,7.905-5.424,12.854   c0,4.945,1.807,9.227,5.424,12.847l73.089,73.088c3.617,3.617,7.898,5.424,12.847,5.424c4.95,0,9.234-1.807,12.849-5.424   l73.087-73.088c3.613-3.62,5.421-7.901,5.421-12.847c0-4.948-1.808-9.232-5.421-12.854   C338.142,403.802,333.857,401.994,328.906,401.994z" data-original="#000000" class="active-path" data-old_color="#000000" fill="#FFFFFF"/>
</g></g> </svg>
